<svg xmlns="http://www.w3.org/2000/svg" xmlns:xlink="http://www.w3.org/1999/xlink" width="372" zoomAndPan="magnify" viewBox="0 0 279 69.749997" height="93" preserveAspectRatio="xMidYMid meet" version="1.0"><defs><g/><clipPath id="4c82ae8395"><path d="M 0.5 0 L 278.5 0 L 278.5 68 L 0.5 68 Z M 0.5 0 " clip-rule="nonzero"/></clipPath><clipPath id="3aa585deb4"><path d="M 0.5 13.097656 L 81 13.097656 L 81 49 L 0.5 49 Z M 0.5 13.097656 " clip-rule="nonzero"/></clipPath><clipPath id="223a9fd45b"><path d="M 75 13.097656 L 198.355469 13.097656 L 198.355469 49 L 75 49 Z M 75 13.097656 " clip-rule="nonzero"/></clipPath><clipPath id="b9c7da0b93"><path d="M 211.183594 61.253906 L 217 61.253906 L 217 66.886719 L 211.183594 66.886719 Z M 211.183594 61.253906 " clip-rule="nonzero"/></clipPath><clipPath id="6fc9faca41"><path d="M 266.59375 61.253906 L 272.632812 61.253906 L 272.632812 66.886719 L 266.59375 66.886719 Z M 266.59375 61.253906 " clip-rule="nonzero"/></clipPath><clipPath id="afe9386ab0"><path d="M 264.222656 43 L 278.199219 43 L 278.199219 55.214844 L 264.222656 55.214844 Z M 264.222656 43 " clip-rule="nonzero"/></clipPath><clipPath id="30c1726983"><path d="M 205.359375 43 L 220 43 L 220 56 L 205.359375 56 Z M 205.359375 43 " clip-rule="nonzero"/></clipPath><clipPath id="e37262950b"><path d="M 0.164062 1 L 14 1 L 14 21 L 0.164062 21 Z M 0.164062 1 " clip-rule="nonzero"/></clipPath><clipPath id="df5dd4b1ec"><rect x="0" width="28" y="0" height="28"/></clipPath><clipPath id="5aba9eb911"><path d="M 1 0.304688 L 7 0.304688 L 7 6 L 1 6 Z M 1 0.304688 " clip-rule="nonzero"/></clipPath><clipPath id="825260eec9"><path d="M 6 0.304688 L 12 0.304688 L 12 6 L 6 6 Z M 6 0.304688 " clip-rule="nonzero"/></clipPath><clipPath id="7414cc12e8"><path d="M 11 0.304688 L 17 0.304688 L 17 6 L 11 6 Z M 11 0.304688 " clip-rule="nonzero"/></clipPath><clipPath id="c8a3aa8bbc"><path d="M 16 0.304688 L 22 0.304688 L 22 6 L 16 6 Z M 16 0.304688 " clip-rule="nonzero"/></clipPath><clipPath id="b2642686b9"><path d="M 22 0.304688 L 27 0.304688 L 27 6 L 22 6 Z M 22 0.304688 " clip-rule="nonzero"/></clipPath><clipPath id="6656bc06df"><rect x="0" width="28" y="0" height="9"/></clipPath><clipPath id="cf77797995"><path d="M 1 0.0234375 L 7 0.0234375 L 7 6 L 1 6 Z M 1 0.0234375 " clip-rule="nonzero"/></clipPath><clipPath id="5d59f0a49a"><path d="M 6 0.0234375 L 11 0.0234375 L 11 6 L 6 6 Z M 6 0.0234375 " clip-rule="nonzero"/></clipPath><clipPath id="d2d5e1b409"><path d="M 11 0.0234375 L 16 0.0234375 L 16 6 L 11 6 Z M 11 0.0234375 " clip-rule="nonzero"/></clipPath><clipPath id="433842903f"><path d="M 16 0.0234375 L 22 0.0234375 L 22 6 L 16 6 Z M 16 0.0234375 " clip-rule="nonzero"/></clipPath><clipPath id="dfc2e4a20c"><path d="M 21 0.0234375 L 26 0.0234375 L 26 6 L 21 6 Z M 21 0.0234375 " clip-rule="nonzero"/></clipPath><clipPath id="c6daaf7fb7"><path d="M 26 0.0234375 L 33 0.0234375 L 33 6 L 26 6 Z M 26 0.0234375 " clip-rule="nonzero"/></clipPath><clipPath id="0b7e1fe961"><path d="M 33 0.0234375 L 36 0.0234375 L 36 6 L 33 6 Z M 33 0.0234375 " clip-rule="nonzero"/></clipPath><clipPath id="04c5e17a31"><path d="M 35 0.0234375 L 41 0.0234375 L 41 6 L 35 6 Z M 35 0.0234375 " clip-rule="nonzero"/></clipPath><clipPath id="a2fb433e41"><rect x="0" width="43" y="0" height="8"/></clipPath><clipPath id="31a60d88b5"><path d="M 9 0.546875 L 14 0.546875 L 14 6 L 9 6 Z M 9 0.546875 " clip-rule="nonzero"/></clipPath><clipPath id="acdb4626e8"><path d="M 36 0.546875 L 41 0.546875 L 41 6 L 36 6 Z M 36 0.546875 " clip-rule="nonzero"/></clipPath><clipPath id="2a6cd16fe4"><rect x="0" width="46" y="0" height="8"/></clipPath><clipPath id="c36fb48d2b"><rect x="0" width="279" y="0" height="68"/></clipPath></defs><g clip-path="url(#4c82ae8395)"><g transform="matrix(1, 0, 0, 1, 0.000000000000000111, 0.000000000000000149)"><g clip-path="url(#c36fb48d2b)"><g clip-path="url(#3aa585deb4)"><path fill="#001b70" d="M 0.5 13.097656 L 80.816406 13.097656 L 80.816406 48.3125 L 0.5 48.3125 Z M 0.5 13.097656 " fill-opacity="1" fill-rule="nonzero"/></g><path fill="#ffffff" d="M 14.820312 28.628906 L 23.941406 28.628906 L 23.941406 32.773438 L 14.820312 32.773438 Z M 15.210938 36.355469 L 25.484375 36.355469 L 25.484375 40.636719 L 9.710938 40.636719 L 9.710938 21.042969 L 25.121094 21.042969 L 25.121094 25.324219 L 15.210938 25.324219 Z M 39.796875 41.027344 C 38.246094 41.027344 36.804688 40.785156 35.476562 40.300781 C 34.144531 39.796875 32.996094 39.089844 32.023438 38.175781 C 31.066406 37.257812 30.320312 36.1875 29.777344 34.953125 C 29.234375 33.703125 28.960938 32.332031 28.960938 30.839844 C 28.960938 29.347656 29.234375 27.984375 29.777344 26.753906 C 30.320312 25.503906 31.078125 24.421875 32.050781 23.507812 C 33.023438 22.59375 34.175781 21.890625 35.503906 21.40625 C 36.851562 20.902344 38.320312 20.652344 39.910156 20.652344 C 41.761719 20.652344 43.417969 20.960938 44.878906 21.574219 C 46.339844 22.191406 47.546875 23.078125 48.5 24.234375 L 44.964844 27.425781 C 44.289062 26.699219 43.558594 26.15625 42.773438 25.800781 C 42.007812 25.429688 41.144531 25.242188 40.191406 25.242188 C 39.347656 25.242188 38.582031 25.371094 37.890625 25.632812 C 37.195312 25.894531 36.605469 26.277344 36.121094 26.78125 C 35.632812 27.265625 35.25 27.855469 34.96875 28.542969 C 34.707031 29.214844 34.578125 29.980469 34.578125 30.839844 C 34.578125 31.660156 34.707031 32.417969 34.96875 33.109375 C 35.25 33.796875 35.632812 34.394531 36.121094 34.898438 C 36.605469 35.382812 37.1875 35.765625 37.859375 36.046875 C 38.554688 36.308594 39.3125 36.4375 40.132812 36.4375 C 40.957031 36.4375 41.761719 36.308594 42.546875 36.046875 C 43.335938 35.765625 44.128906 35.300781 44.933594 34.648438 L 48.050781 38.539062 C 46.929688 39.339844 45.628906 39.957031 44.148438 40.386719 C 42.671875 40.816406 41.21875 41.027344 39.796875 41.027344 Z M 43.136719 37.808594 L 43.136719 30.421875 L 48.050781 30.421875 L 48.050781 38.539062 Z M 59.882812 41.027344 C 58.273438 41.027344 56.71875 40.832031 55.222656 40.441406 C 53.746094 40.03125 52.539062 39.507812 51.601562 38.875 L 53.425781 34.785156 C 54.304688 35.347656 55.316406 35.8125 56.457031 36.1875 C 57.617188 36.542969 58.769531 36.71875 59.910156 36.71875 C 60.679688 36.71875 61.296875 36.652344 61.765625 36.523438 C 62.230469 36.375 62.570312 36.1875 62.773438 35.960938 C 63 35.71875 63.109375 35.441406 63.109375 35.121094 C 63.109375 34.675781 62.90625 34.320312 62.492188 34.058594 C 62.082031 33.796875 61.546875 33.582031 60.894531 33.414062 C 60.238281 33.246094 59.507812 33.078125 58.703125 32.910156 C 57.917969 32.742188 57.121094 32.527344 56.316406 32.269531 C 55.53125 32.007812 54.8125 31.671875 54.15625 31.261719 C 53.5 30.832031 52.96875 30.28125 52.558594 29.609375 C 52.144531 28.917969 51.9375 28.050781 51.9375 27.003906 C 51.9375 25.828125 52.257812 24.765625 52.894531 23.8125 C 53.546875 22.863281 54.523438 22.097656 55.8125 21.519531 C 57.105469 20.941406 58.714844 20.652344 60.640625 20.652344 C 61.933594 20.652344 63.195312 20.800781 64.429688 21.097656 C 65.683594 21.378906 66.796875 21.800781 67.769531 22.359375 L 66.058594 26.472656 C 65.121094 25.96875 64.195312 25.597656 63.28125 25.355469 C 62.363281 25.09375 61.472656 24.960938 60.613281 24.960938 C 59.847656 24.960938 59.226562 25.046875 58.761719 25.214844 C 58.292969 25.363281 57.957031 25.570312 57.75 25.828125 C 57.542969 26.089844 57.441406 26.390625 57.441406 26.726562 C 57.441406 27.15625 57.636719 27.5 58.03125 27.761719 C 58.441406 28.003906 58.976562 28.207031 59.628906 28.375 C 60.304688 28.527344 61.035156 28.683594 61.820312 28.851562 C 62.625 29.019531 63.421875 29.234375 64.207031 29.496094 C 65.011719 29.738281 65.742188 30.074219 66.394531 30.503906 C 67.050781 30.914062 67.574219 31.464844 67.96875 32.15625 C 68.378906 32.828125 68.585938 33.675781 68.585938 34.703125 C 68.585938 35.839844 68.257812 36.894531 67.601562 37.867188 C 66.964844 38.816406 66.003906 39.582031 64.710938 40.160156 C 63.4375 40.738281 61.828125 41.027344 59.882812 41.027344 Z M 59.882812 41.027344 " fill-opacity="1" fill-rule="nonzero"/><g clip-path="url(#223a9fd45b)"><path fill="#af005f" d="M 75.65625 13.097656 L 198.078125 13.097656 L 198.078125 48.3125 L 75.65625 48.3125 Z M 75.65625 13.097656 " fill-opacity="1" fill-rule="nonzero"/></g><path fill="#ffffff" d="M 80.792969 40.636719 L 80.792969 21.042969 L 89.773438 21.042969 C 91.570312 21.042969 93.113281 21.332031 94.40625 21.910156 C 95.714844 22.488281 96.726562 23.328125 97.4375 24.429688 C 98.148438 25.511719 98.503906 26.800781 98.503906 28.292969 C 98.503906 29.765625 98.148438 31.046875 97.4375 32.128906 C 96.726562 33.210938 95.714844 34.050781 94.40625 34.648438 C 93.113281 35.226562 91.570312 35.515625 89.773438 35.515625 L 83.878906 35.515625 L 86.347656 33.109375 L 86.347656 40.636719 Z M 86.347656 33.695312 L 83.878906 31.148438 L 89.4375 31.148438 C 90.597656 31.148438 91.457031 30.894531 92.019531 30.390625 C 92.601562 29.886719 92.890625 29.1875 92.890625 28.292969 C 92.890625 27.378906 92.601562 26.667969 92.019531 26.164062 C 91.457031 25.660156 90.597656 25.410156 89.4375 25.410156 L 83.878906 25.410156 L 86.347656 22.863281 Z M 102.617188 40.636719 L 102.617188 21.042969 L 108.175781 21.042969 L 108.175781 40.636719 Z M 113.53125 40.636719 L 113.53125 21.042969 L 119.089844 21.042969 L 119.089844 36.242188 L 128.464844 36.242188 L 128.464844 40.636719 Z M 132.070312 40.636719 L 132.070312 21.042969 L 137.628906 21.042969 L 137.628906 36.242188 L 147.003906 36.242188 L 147.003906 40.636719 Z M 148.441406 40.636719 L 157.113281 21.042969 L 162.585938 21.042969 L 171.289062 40.636719 L 165.507812 40.636719 L 158.714844 23.757812 L 160.902344 23.757812 L 154.109375 40.636719 Z M 153.183594 36.832031 L 154.617188 32.742188 L 164.214844 32.742188 L 165.648438 36.832031 Z M 178.003906 40.636719 L 178.003906 32.351562 L 179.292969 35.683594 L 170.507812 21.042969 L 176.375 21.042969 L 182.71875 31.652344 L 179.324219 31.652344 L 185.695312 21.042969 L 191.085938 21.042969 L 182.324219 35.683594 L 183.5625 32.351562 L 183.5625 40.636719 Z M 178.003906 40.636719 " fill-opacity="1" fill-rule="nonzero"/><path fill="#010101" d="M 8.835938 55.710938 C 8.757812 55.449219 8.652344 55.214844 8.515625 55.011719 C 8.378906 54.808594 8.210938 54.636719 8.011719 54.496094 C 7.816406 54.351562 7.589844 54.238281 7.339844 54.164062 C 7.089844 54.089844 6.8125 54.050781 6.507812 54.050781 C 5.941406 54.050781 5.441406 54.191406 5.011719 54.472656 C 4.582031 54.753906 4.25 55.164062 4.011719 55.699219 C 3.773438 56.234375 3.652344 56.886719 3.652344 57.660156 C 3.652344 58.429688 3.769531 59.089844 4.007812 59.628906 C 4.242188 60.171875 4.574219 60.582031 5.003906 60.867188 C 5.433594 61.148438 5.945312 61.289062 6.53125 61.289062 C 7.0625 61.289062 7.515625 61.195312 7.890625 61.007812 C 8.269531 60.816406 8.5625 60.550781 8.757812 60.203125 C 8.960938 59.855469 9.0625 59.445312 9.0625 58.972656 L 9.539062 59.042969 L 6.675781 59.042969 L 6.675781 57.28125 L 11.328125 57.28125 L 11.328125 58.675781 C 11.328125 59.652344 11.121094 60.488281 10.707031 61.1875 C 10.296875 61.882812 9.726562 62.421875 9.003906 62.800781 C 8.28125 63.175781 7.453125 63.363281 6.519531 63.363281 C 5.476562 63.363281 4.5625 63.132812 3.773438 62.675781 C 2.984375 62.214844 2.371094 61.558594 1.929688 60.710938 C 1.492188 59.859375 1.269531 58.851562 1.269531 57.679688 C 1.269531 56.78125 1.402344 55.980469 1.660156 55.277344 C 1.925781 54.570312 2.296875 53.972656 2.769531 53.480469 C 3.242188 52.992188 3.792969 52.617188 4.425781 52.363281 C 5.054688 52.105469 5.734375 51.976562 6.46875 51.976562 C 7.097656 51.976562 7.683594 52.070312 8.226562 52.253906 C 8.769531 52.433594 9.25 52.691406 9.671875 53.023438 C 10.09375 53.355469 10.441406 53.75 10.707031 54.207031 C 10.976562 54.660156 11.148438 55.164062 11.222656 55.710938 Z M 13.398438 63.210938 L 13.398438 52.128906 L 17.78125 52.128906 C 18.621094 52.128906 19.335938 52.277344 19.929688 52.578125 C 20.527344 52.875 20.980469 53.292969 21.292969 53.839844 C 21.605469 54.378906 21.765625 55.015625 21.765625 55.75 C 21.765625 56.484375 21.605469 57.117188 21.285156 57.648438 C 20.96875 58.175781 20.507812 58.578125 19.902344 58.859375 C 19.300781 59.140625 18.574219 59.28125 17.722656 59.28125 L 14.785156 59.28125 L 14.785156 57.398438 L 17.339844 57.398438 C 17.789062 57.398438 18.164062 57.339844 18.460938 57.214844 C 18.757812 57.09375 18.976562 56.910156 19.121094 56.664062 C 19.269531 56.417969 19.34375 56.113281 19.34375 55.75 C 19.34375 55.382812 19.269531 55.070312 19.121094 54.820312 C 18.976562 54.566406 18.753906 54.375 18.453125 54.246094 C 18.15625 54.113281 17.78125 54.046875 17.332031 54.046875 L 15.746094 54.046875 L 15.746094 63.210938 Z M 19.398438 58.167969 L 22.160156 63.210938 L 19.566406 63.210938 L 16.863281 58.167969 Z M 33.941406 57.671875 C 33.941406 58.878906 33.710938 59.90625 33.253906 60.753906 C 32.796875 61.601562 32.175781 62.25 31.386719 62.699219 C 30.601562 63.140625 29.71875 63.363281 28.738281 63.363281 C 27.75 63.363281 26.863281 63.140625 26.078125 62.691406 C 25.292969 62.246094 24.675781 61.597656 24.21875 60.75 C 23.761719 59.902344 23.535156 58.875 23.535156 57.671875 C 23.535156 56.460938 23.761719 55.433594 24.21875 54.585938 C 24.675781 53.738281 25.292969 53.09375 26.078125 52.648438 C 26.863281 52.203125 27.75 51.976562 28.738281 51.976562 C 29.71875 51.976562 30.601562 52.203125 31.386719 52.648438 C 32.175781 53.09375 32.796875 53.738281 33.253906 54.585938 C 33.710938 55.433594 33.941406 56.460938 33.941406 57.671875 Z M 31.558594 57.671875 C 31.558594 56.886719 31.441406 56.226562 31.207031 55.691406 C 30.976562 55.152344 30.648438 54.746094 30.226562 54.46875 C 29.800781 54.1875 29.304688 54.050781 28.738281 54.050781 C 28.171875 54.050781 27.675781 54.1875 27.25 54.46875 C 26.828125 54.746094 26.5 55.152344 26.265625 55.691406 C 26.03125 56.226562 25.917969 56.886719 25.917969 57.671875 C 25.917969 58.453125 26.03125 59.113281 26.265625 59.652344 C 26.5 60.1875 26.828125 60.597656 27.25 60.875 C 27.675781 61.152344 28.171875 61.289062 28.738281 61.289062 C 29.304688 61.289062 29.800781 61.152344 30.226562 60.875 C 30.648438 60.597656 30.976562 60.1875 31.207031 59.652344 C 31.441406 59.113281 31.558594 58.453125 31.558594 57.671875 Z M 42.851562 52.128906 L 45.203125 52.128906 L 45.203125 59.324219 C 45.203125 60.132812 45.007812 60.839844 44.621094 61.449219 C 44.238281 62.054688 43.699219 62.527344 43.007812 62.863281 C 42.320312 63.199219 41.515625 63.367188 40.59375 63.367188 C 39.671875 63.367188 38.867188 63.199219 38.175781 62.863281 C 37.484375 62.527344 36.945312 62.054688 36.5625 61.449219 C 36.179688 60.839844 35.988281 60.132812 35.988281 59.324219 L 35.988281 52.128906 L 38.335938 52.128906 L 38.335938 59.125 C 38.335938 59.546875 38.429688 59.921875 38.613281 60.25 C 38.800781 60.578125 39.066406 60.835938 39.40625 61.023438 C 39.746094 61.210938 40.144531 61.304688 40.59375 61.304688 C 41.050781 61.304688 41.445312 61.210938 41.785156 61.023438 C 42.125 60.835938 42.386719 60.578125 42.570312 60.25 C 42.757812 59.921875 42.851562 59.546875 42.851562 59.125 Z M 47.441406 63.210938 L 47.441406 52.128906 L 51.824219 52.128906 C 52.667969 52.128906 53.386719 52.289062 53.980469 52.609375 C 54.574219 52.929688 55.023438 53.371094 55.335938 53.9375 C 55.652344 54.5 55.808594 55.148438 55.808594 55.882812 C 55.808594 56.621094 55.648438 57.269531 55.332031 57.832031 C 55.011719 58.394531 54.550781 58.832031 53.945312 59.148438 C 53.347656 59.460938 52.621094 59.617188 51.765625 59.617188 L 48.972656 59.617188 L 48.972656 57.742188 L 51.386719 57.742188 C 51.839844 57.742188 52.210938 57.664062 52.503906 57.507812 C 52.800781 57.347656 53.019531 57.132812 53.164062 56.851562 C 53.3125 56.570312 53.386719 56.25 53.386719 55.882812 C 53.386719 55.515625 53.3125 55.195312 53.164062 54.921875 C 53.019531 54.644531 52.800781 54.429688 52.503906 54.277344 C 52.207031 54.121094 51.832031 54.046875 51.375 54.046875 L 49.789062 54.046875 L 49.789062 63.210938 Z M 71.695312 57.671875 C 71.695312 58.878906 71.464844 59.90625 71.003906 60.753906 C 70.550781 61.601562 69.925781 62.25 69.136719 62.699219 C 68.351562 63.140625 67.46875 63.363281 66.492188 63.363281 C 65.503906 63.363281 64.617188 63.140625 63.832031 62.691406 C 63.046875 62.246094 62.425781 61.597656 61.96875 60.75 C 61.515625 59.902344 61.285156 58.875 61.285156 57.671875 C 61.285156 56.460938 61.515625 55.433594 61.96875 54.585938 C 62.425781 53.738281 63.046875 53.09375 63.832031 52.648438 C 64.617188 52.203125 65.503906 51.976562 66.492188 51.976562 C 67.46875 51.976562 68.351562 52.203125 69.136719 52.648438 C 69.925781 53.09375 70.550781 53.738281 71.003906 54.585938 C 71.464844 55.433594 71.695312 56.460938 71.695312 57.671875 Z M 69.3125 57.671875 C 69.3125 56.886719 69.195312 56.226562 68.960938 55.691406 C 68.726562 55.152344 68.402344 54.746094 67.976562 54.46875 C 67.554688 54.1875 67.058594 54.050781 66.492188 54.050781 C 65.921875 54.050781 65.425781 54.1875 65.003906 54.46875 C 64.582031 54.746094 64.25 55.152344 64.015625 55.691406 C 63.785156 56.226562 63.667969 56.886719 63.667969 57.671875 C 63.667969 58.453125 63.785156 59.113281 64.015625 59.652344 C 64.25 60.1875 64.582031 60.597656 65.003906 60.875 C 65.425781 61.152344 65.921875 61.289062 66.492188 61.289062 C 67.058594 61.289062 67.554688 61.152344 67.976562 60.875 C 68.402344 60.597656 68.726562 60.1875 68.960938 59.652344 C 69.195312 59.113281 69.3125 58.453125 69.3125 57.671875 Z M 73.738281 63.210938 L 73.738281 52.128906 L 81.097656 52.128906 L 81.097656 54.0625 L 76.089844 54.0625 L 76.089844 56.703125 L 80.609375 56.703125 L 80.609375 58.632812 L 76.089844 58.632812 L 76.089844 63.210938 Z M 89.175781 52.128906 L 89.175781 63.210938 L 86.828125 63.210938 L 86.828125 52.128906 Z M 100.710938 52.128906 L 100.710938 63.210938 L 98.679688 63.210938 L 93.84375 56.238281 L 93.765625 56.238281 L 93.765625 63.210938 L 91.414062 63.210938 L 91.414062 52.128906 L 93.476562 52.128906 L 98.273438 59.097656 L 98.371094 59.097656 L 98.371094 52.128906 Z M 108.984375 55.316406 C 108.941406 54.878906 108.753906 54.542969 108.425781 54.300781 C 108.097656 54.058594 107.648438 53.9375 107.085938 53.9375 C 106.703125 53.9375 106.378906 53.992188 106.113281 54.097656 C 105.851562 54.203125 105.648438 54.351562 105.507812 54.539062 C 105.371094 54.726562 105.300781 54.9375 105.300781 55.175781 C 105.292969 55.375 105.335938 55.546875 105.425781 55.695312 C 105.519531 55.84375 105.648438 55.972656 105.8125 56.078125 C 105.972656 56.183594 106.160156 56.277344 106.375 56.355469 C 106.589844 56.429688 106.816406 56.496094 107.058594 56.550781 L 108.058594 56.789062 C 108.542969 56.898438 108.988281 57.039062 109.390625 57.222656 C 109.796875 57.402344 110.148438 57.625 110.445312 57.886719 C 110.742188 58.148438 110.972656 58.460938 111.132812 58.816406 C 111.300781 59.175781 111.386719 59.585938 111.390625 60.046875 C 111.386719 60.722656 111.210938 61.3125 110.867188 61.808594 C 110.527344 62.304688 110.035156 62.6875 109.390625 62.960938 C 108.75 63.234375 107.980469 63.367188 107.074219 63.367188 C 106.179688 63.367188 105.398438 63.230469 104.730469 62.957031 C 104.070312 62.683594 103.550781 62.277344 103.179688 61.738281 C 102.808594 61.199219 102.617188 60.53125 102.597656 59.730469 L 104.871094 59.730469 C 104.898438 60.105469 105.003906 60.414062 105.191406 60.664062 C 105.382812 60.90625 105.640625 61.09375 105.957031 61.21875 C 106.277344 61.34375 106.644531 61.402344 107.046875 61.402344 C 107.445312 61.402344 107.792969 61.347656 108.085938 61.230469 C 108.382812 61.117188 108.609375 60.953125 108.773438 60.75 C 108.9375 60.542969 109.019531 60.308594 109.019531 60.039062 C 109.019531 59.792969 108.945312 59.582031 108.796875 59.414062 C 108.652344 59.242188 108.4375 59.097656 108.15625 58.980469 C 107.875 58.859375 107.535156 58.753906 107.128906 58.65625 L 105.917969 58.351562 C 104.980469 58.125 104.242188 57.769531 103.699219 57.285156 C 103.15625 56.804688 102.886719 56.152344 102.890625 55.332031 C 102.886719 54.660156 103.066406 54.074219 103.429688 53.574219 C 103.792969 53.074219 104.296875 52.679688 104.933594 52.398438 C 105.570312 52.117188 106.292969 51.976562 107.101562 51.976562 C 107.925781 51.976562 108.648438 52.117188 109.261719 52.398438 C 109.878906 52.679688 110.363281 53.074219 110.707031 53.574219 C 111.050781 54.074219 111.226562 54.65625 111.238281 55.316406 Z M 112.851562 54.0625 L 112.851562 52.128906 L 121.980469 52.128906 L 121.980469 54.0625 L 118.578125 54.0625 L 118.578125 63.210938 L 116.253906 63.210938 L 116.253906 54.0625 Z M 126.136719 52.128906 L 126.136719 63.210938 L 123.789062 63.210938 L 123.789062 52.128906 Z M 127.953125 54.0625 L 127.953125 52.128906 L 137.078125 52.128906 L 137.078125 54.0625 L 133.675781 54.0625 L 133.675781 63.210938 L 131.355469 63.210938 L 131.355469 54.0625 Z M 145.753906 52.128906 L 148.101562 52.128906 L 148.101562 59.324219 C 148.101562 60.132812 147.910156 60.839844 147.519531 61.449219 C 147.136719 62.054688 146.601562 62.527344 145.910156 62.863281 C 145.21875 63.199219 144.414062 63.367188 143.496094 63.367188 C 142.574219 63.367188 141.765625 63.199219 141.074219 62.863281 C 140.382812 62.527344 139.847656 62.054688 139.464844 61.449219 C 139.078125 60.839844 138.886719 60.132812 138.886719 59.324219 L 138.886719 52.128906 L 141.238281 52.128906 L 141.238281 59.125 C 141.238281 59.546875 141.328125 59.921875 141.515625 60.25 C 141.703125 60.578125 141.964844 60.835938 142.304688 61.023438 C 142.648438 61.210938 143.042969 61.304688 143.496094 61.304688 C 143.949219 61.304688 144.347656 61.210938 144.683594 61.023438 C 145.023438 60.835938 145.285156 60.578125 145.46875 60.25 C 145.65625 59.921875 145.753906 59.546875 145.753906 59.125 Z M 149.917969 54.0625 L 149.917969 52.128906 L 159.042969 52.128906 L 159.042969 54.0625 L 155.640625 54.0625 L 155.640625 63.210938 L 153.320312 63.210938 L 153.320312 54.0625 Z M 163.203125 52.128906 L 163.203125 63.210938 L 160.851562 63.210938 L 160.851562 52.128906 Z M 175.652344 57.671875 C 175.652344 58.878906 175.421875 59.90625 174.964844 60.753906 C 174.507812 61.601562 173.886719 62.25 173.097656 62.699219 C 172.3125 63.140625 171.429688 63.363281 170.449219 63.363281 C 169.460938 63.363281 168.574219 63.140625 167.789062 62.691406 C 167.003906 62.246094 166.386719 61.597656 165.929688 60.75 C 165.472656 59.902344 165.246094 58.875 165.246094 57.671875 C 165.246094 56.460938 165.472656 55.433594 165.929688 54.585938 C 166.386719 53.738281 167.003906 53.09375 167.789062 52.648438 C 168.574219 52.203125 169.460938 51.976562 170.449219 51.976562 C 171.429688 51.976562 172.3125 52.203125 173.097656 52.648438 C 173.886719 53.09375 174.507812 53.738281 174.964844 54.585938 C 175.421875 55.433594 175.652344 56.460938 175.652344 57.671875 Z M 173.269531 57.671875 C 173.269531 56.886719 173.152344 56.226562 172.917969 55.691406 C 172.6875 55.152344 172.359375 54.746094 171.9375 54.46875 C 171.511719 54.1875 171.015625 54.050781 170.449219 54.050781 C 169.882812 54.050781 169.386719 54.1875 168.960938 54.46875 C 168.539062 54.746094 168.210938 55.152344 167.976562 55.691406 C 167.742188 56.226562 167.628906 56.886719 167.628906 57.671875 C 167.628906 58.453125 167.742188 59.113281 167.976562 59.652344 C 168.210938 60.1875 168.539062 60.597656 168.960938 60.875 C 169.386719 61.152344 169.882812 61.289062 170.449219 61.289062 C 171.015625 61.289062 171.511719 61.152344 171.9375 60.875 C 172.359375 60.597656 172.6875 60.1875 172.917969 59.652344 C 173.152344 59.113281 173.269531 58.453125 173.269531 57.671875 Z M 186.996094 52.128906 L 186.996094 63.210938 L 184.964844 63.210938 L 180.128906 56.238281 L 180.050781 56.238281 L 180.050781 63.210938 L 177.699219 63.210938 L 177.699219 52.128906 L 179.761719 52.128906 L 184.558594 59.097656 L 184.65625 59.097656 L 184.65625 52.128906 Z M 195.269531 55.316406 C 195.226562 54.878906 195.039062 54.542969 194.710938 54.300781 C 194.382812 54.058594 193.933594 53.9375 193.371094 53.9375 C 192.988281 53.9375 192.664062 53.992188 192.398438 54.097656 C 192.136719 54.203125 191.933594 54.351562 191.792969 54.539062 C 191.652344 54.726562 191.585938 54.9375 191.585938 55.175781 C 191.578125 55.375 191.621094 55.546875 191.710938 55.695312 C 191.804688 55.84375 191.933594 55.972656 192.09375 56.078125 C 192.257812 56.183594 192.445312 56.277344 192.660156 56.355469 C 192.875 56.429688 193.101562 56.496094 193.34375 56.550781 L 194.34375 56.789062 C 194.828125 56.898438 195.273438 57.039062 195.675781 57.222656 C 196.082031 57.402344 196.433594 57.625 196.730469 57.886719 C 197.027344 58.148438 197.257812 58.460938 197.417969 58.816406 C 197.585938 59.175781 197.671875 59.585938 197.671875 60.046875 C 197.671875 60.722656 197.496094 61.3125 197.152344 61.808594 C 196.8125 62.304688 196.320312 62.6875 195.675781 62.960938 C 195.035156 63.234375 194.265625 63.367188 193.359375 63.367188 C 192.460938 63.367188 191.679688 63.230469 191.015625 62.957031 C 190.355469 62.683594 189.835938 62.277344 189.464844 61.738281 C 189.09375 61.199219 188.902344 60.53125 188.882812 59.730469 L 191.15625 59.730469 C 191.183594 60.105469 191.289062 60.414062 191.476562 60.664062 C 191.667969 60.90625 191.921875 61.09375 192.242188 61.21875 C 192.5625 61.34375 192.925781 61.402344 193.332031 61.402344 C 193.730469 61.402344 194.074219 61.347656 194.371094 61.230469 C 194.664062 61.117188 194.894531 60.953125 195.058594 60.75 C 195.222656 60.542969 195.300781 60.308594 195.300781 60.039062 C 195.300781 59.792969 195.226562 59.582031 195.078125 59.414062 C 194.933594 59.242188 194.722656 59.097656 194.441406 58.980469 C 194.160156 58.859375 193.820312 58.753906 193.414062 58.65625 L 192.203125 58.351562 C 191.265625 58.125 190.527344 57.769531 189.984375 57.285156 C 189.441406 56.804688 189.171875 56.152344 189.175781 55.332031 C 189.171875 54.660156 189.351562 54.074219 189.714844 53.574219 C 190.078125 53.074219 190.578125 52.679688 191.214844 52.398438 C 191.851562 52.117188 192.578125 51.976562 193.386719 51.976562 C 194.210938 51.976562 194.933594 52.117188 195.546875 52.398438 C 196.164062 52.679688 196.644531 53.074219 196.988281 53.574219 C 197.332031 54.074219 197.511719 54.65625 197.523438 55.316406 Z M 195.269531 55.316406 " fill-opacity="1" fill-rule="nonzero"/><path fill="#001b70" d="M 211.128906 57.101562 L 211.847656 58.558594 L 213.453125 58.792969 L 212.292969 59.925781 L 212.566406 61.527344 L 211.128906 60.773438 L 209.691406 61.527344 L 209.964844 59.925781 L 208.800781 58.792969 L 210.410156 58.558594 L 211.128906 57.101562 " fill-opacity="1" fill-rule="nonzero"/><path fill="#001b70" d="M 272.507812 57.101562 L 273.226562 58.558594 L 274.832031 58.792969 L 273.671875 59.925781 L 273.945312 61.527344 L 272.507812 60.773438 L 271.070312 61.527344 L 271.34375 59.925781 L 270.179688 58.792969 L 271.789062 58.558594 L 272.507812 57.101562 " fill-opacity="1" fill-rule="nonzero"/><g clip-path="url(#b9c7da0b93)"><path fill="#001b70" d="M 214.082031 61.425781 L 214.96875 63.222656 L 216.953125 63.511719 L 215.519531 64.910156 L 215.855469 66.886719 L 214.082031 65.953125 L 212.308594 66.886719 L 212.648438 64.910156 L 211.210938 63.511719 L 213.195312 63.222656 L 214.082031 61.425781 " fill-opacity="1" fill-rule="nonzero"/></g><g clip-path="url(#6fc9faca41)"><path fill="#001b70" d="M 269.554688 61.425781 L 270.441406 63.222656 L 272.425781 63.511719 L 270.988281 64.910156 L 271.328125 66.886719 L 269.554688 65.953125 L 267.777344 66.886719 L 268.117188 64.910156 L 266.679688 63.511719 L 268.667969 63.222656 L 269.554688 61.425781 " fill-opacity="1" fill-rule="nonzero"/></g><path fill="#001b70" d="M 218.3125 46.792969 C 219.671875 51.035156 218.417969 54.78125 217.050781 58.796875 C 235.859375 58.796875 247.777344 58.796875 266.585938 58.796875 C 265.21875 54.777344 263.964844 51.035156 265.324219 46.792969 C 247.351562 47.066406 236.285156 47.066406 218.3125 46.792969 " fill-opacity="1" fill-rule="nonzero"/><g clip-path="url(#afe9386ab0)"><path fill="#001b70" d="M 278.273438 43.027344 L 264.34375 43.027344 L 266.605469 46.792969 C 265.675781 49.691406 265.964844 52.355469 266.679688 55.035156 C 270.546875 55.09375 274.410156 54.96875 278.273438 55.035156 C 276.855469 53.015625 274.007812 49.167969 274.007812 49.167969 L 278.273438 43.027344 " fill-opacity="1" fill-rule="nonzero"/></g><g clip-path="url(#30c1726983)"><path fill="#001b70" d="M 205.359375 43.027344 L 219.292969 43.027344 L 217.03125 46.792969 C 217.960938 49.691406 217.667969 52.355469 216.953125 55.035156 C 213.089844 55.09375 209.226562 54.96875 205.359375 55.035156 C 206.78125 53.015625 209.625 49.167969 209.625 49.167969 L 205.359375 43.027344 " fill-opacity="1" fill-rule="nonzero"/></g><path fill="#001b70" d="M 241.816406 0.0195312 L 243.300781 3.023438 L 246.617188 3.503906 L 244.214844 5.84375 L 244.78125 9.144531 L 241.816406 7.585938 L 238.851562 9.144531 L 239.417969 5.84375 L 237.019531 3.503906 L 240.335938 3.023438 L 241.816406 0.0195312 " fill-opacity="1" fill-rule="nonzero"/><path fill="#001b70" d="M 230.707031 3.863281 L 231.789062 6.050781 L 234.207031 6.402344 L 232.457031 8.109375 L 232.871094 10.515625 L 230.707031 9.378906 L 228.546875 10.515625 L 228.960938 8.109375 L 227.210938 6.402344 L 229.628906 6.050781 L 230.707031 3.863281 " fill-opacity="1" fill-rule="nonzero"/><path fill="#001b70" d="M 252.925781 3.863281 L 254.007812 6.050781 L 256.425781 6.402344 L 254.675781 8.109375 L 255.089844 10.515625 L 252.925781 9.378906 L 250.765625 10.515625 L 251.179688 8.109375 L 249.429688 6.402344 L 251.847656 6.050781 L 252.925781 3.863281 " fill-opacity="1" fill-rule="nonzero"/><path fill="#001b70" d="M 209.59375 38.425781 C 209.601562 38.421875 211.390625 38.152344 212.566406 38.617188 C 213.730469 39.085938 213.894531 40.222656 213.894531 40.230469 C 213.894531 40.226562 213.089844 41.078125 211.894531 40.640625 C 210.683594 40.234375 209.574219 38.441406 209.59375 38.425781 " fill-opacity="1" fill-rule="nonzero"/><path fill="#001b70" d="M 215.703125 35.839844 C 215.707031 35.839844 214.105469 36.734375 213.644531 37.898438 C 213.195312 39.0625 214.035156 39.921875 214.035156 39.910156 C 214.039062 39.914062 215.179688 39.75 215.585938 38.585938 C 215.96875 37.417969 215.683594 35.835938 215.703125 35.839844 " fill-opacity="1" fill-rule="nonzero"/><path fill="#001b70" d="M 212.667969 36.816406 C 213.105469 38.011719 213.660156 39.164062 214.234375 40.308594 L 213.996094 40.429688 C 213.417969 39.28125 212.859375 38.121094 212.414062 36.90625 L 212.667969 36.816406 " fill-opacity="1" fill-rule="nonzero"/><path fill="#001b70" d="M 208.347656 34.164062 C 208.347656 34.164062 210.203125 34.222656 211.25 34.894531 C 212.339844 35.546875 212.316406 36.691406 212.335938 36.699219 C 212.339844 36.683594 211.429688 37.472656 210.296875 36.835938 C 209.121094 36.203125 208.339844 34.167969 208.347656 34.164062 " fill-opacity="1" fill-rule="nonzero"/><path fill="#001b70" d="M 214.820312 32.726562 C 214.820312 32.726562 213.105469 33.300781 212.441406 34.363281 C 211.78125 35.433594 212.527344 36.410156 212.507812 36.398438 C 212.515625 36.414062 213.644531 36.359375 214.238281 35.304688 C 214.785156 34.265625 214.832031 32.726562 214.820312 32.726562 " fill-opacity="1" fill-rule="nonzero"/><path fill="#001b70" d="M 211.65625 33.132812 C 211.898438 34.382812 212.214844 35.621094 212.667969 36.816406 L 212.414062 36.90625 C 211.957031 35.699219 211.636719 34.445312 211.394531 33.179688 L 211.65625 33.132812 " fill-opacity="1" fill-rule="nonzero"/><path fill="#001b70" d="M 207.933594 29.71875 C 207.933594 29.714844 209.742188 30.117188 210.644531 30.976562 C 211.5625 31.828125 211.378906 32.941406 211.363281 32.957031 C 211.363281 32.941406 210.335938 33.554688 209.34375 32.707031 C 208.28125 31.855469 207.933594 29.714844 207.933594 29.71875 " fill-opacity="1" fill-rule="nonzero"/><path fill="#001b70" d="M 214.558594 29.515625 C 214.558594 29.519531 212.769531 29.765625 211.914062 30.683594 C 211.035156 31.609375 211.628906 32.707031 211.601562 32.695312 C 211.605469 32.707031 212.726562 32.863281 213.5 31.945312 C 214.207031 31.046875 214.585938 29.515625 214.558594 29.515625 " fill-opacity="1" fill-rule="nonzero"/><path fill="#001b70" d="M 211.375 29.324219 C 211.367188 30.601562 211.457031 31.871094 211.65625 33.132812 L 211.394531 33.179688 C 211.1875 31.898438 211.097656 30.613281 211.105469 29.320312 L 211.375 29.324219 " fill-opacity="1" fill-rule="nonzero"/><path fill="#001b70" d="M 208.269531 25.425781 C 208.277344 25.429688 209.988281 26.019531 210.753906 27.023438 C 211.5625 28.027344 211.109375 29.085938 211.109375 29.097656 C 211.109375 29.085938 209.984375 29.488281 209.171875 28.484375 C 208.332031 27.425781 208.246094 25.378906 208.269531 25.425781 " fill-opacity="1" fill-rule="nonzero"/><path fill="#001b70" d="M 214.867188 26.125 C 214.867188 26.128906 213.042969 26.183594 212.042969 26.953125 C 211.101562 27.726562 211.394531 28.894531 211.394531 28.882812 C 211.390625 28.898438 212.460938 29.261719 213.402344 28.488281 C 214.296875 27.769531 214.847656 26.152344 214.867188 26.125 " fill-opacity="1" fill-rule="nonzero"/><path fill="#001b70" d="M 211.742188 25.515625 C 211.523438 26.78125 211.441406 28.054688 211.375 29.324219 L 211.105469 29.320312 C 211.175781 28.035156 211.257812 26.742188 211.476562 25.476562 L 211.742188 25.515625 " fill-opacity="1" fill-rule="nonzero"/><path fill="#001b70" d="M 208.957031 21.40625 C 208.957031 21.40625 210.644531 22.136719 211.324219 23.179688 C 212.015625 24.21875 211.519531 25.253906 211.507812 25.257812 C 211.511719 25.253906 210.367188 25.488281 209.632812 24.445312 C 208.855469 23.40625 208.960938 21.40625 208.957031 21.40625 " fill-opacity="1" fill-rule="nonzero"/><path fill="#001b70" d="M 215.488281 22.574219 C 215.488281 22.574219 213.667969 22.488281 212.628906 23.191406 C 211.566406 23.894531 211.820312 25.082031 211.808594 25.074219 C 211.804688 25.078125 212.839844 25.601562 213.832031 24.878906 C 214.789062 24.132812 215.503906 22.578125 215.488281 22.574219 " fill-opacity="1" fill-rule="nonzero"/><path fill="#001b70" d="M 212.414062 21.738281 C 212.132812 22.988281 211.902344 24.242188 211.742188 25.515625 L 211.476562 25.476562 C 211.636719 24.203125 211.867188 22.9375 212.152344 21.679688 L 212.414062 21.738281 " fill-opacity="1" fill-rule="nonzero"/><path fill="#001b70" d="M 210.015625 17.335938 C 210.015625 17.332031 211.617188 18.261719 212.210938 19.371094 C 212.777344 20.472656 212.183594 21.453125 212.195312 21.460938 C 212.195312 21.457031 211.042969 21.613281 210.378906 20.5 C 209.738281 19.386719 210.023438 17.332031 210.015625 17.335938 " fill-opacity="1" fill-rule="nonzero"/><path fill="#001b70" d="M 216.371094 19.210938 C 216.371094 19.210938 214.589844 18.914062 213.5 19.511719 C 212.390625 20.109375 212.476562 21.304688 212.503906 21.304688 C 212.5 21.308594 213.5 21.902344 214.523438 21.269531 C 215.609375 20.667969 216.375 19.210938 216.371094 19.210938 " fill-opacity="1" fill-rule="nonzero"/><path fill="#001b70" d="M 213.40625 18.039062 C 213.070312 19.269531 212.625 20.476562 212.414062 21.738281 L 212.152344 21.679688 C 212.367188 20.410156 212.8125 19.191406 213.152344 17.953125 L 213.40625 18.039062 " fill-opacity="1" fill-rule="nonzero"/><path fill="#001b70" d="M 211.691406 13.320312 C 211.703125 13.324219 213.074219 14.472656 213.519531 15.664062 C 213.988281 16.859375 213.242188 17.734375 213.234375 17.746094 C 213.238281 17.734375 212.046875 17.769531 211.578125 16.570312 C 211.0625 15.355469 211.636719 13.300781 211.691406 13.320312 " fill-opacity="1" fill-rule="nonzero"/><path fill="#001b70" d="M 217.691406 16.15625 C 217.695312 16.160156 215.957031 15.558594 214.765625 15.976562 C 213.640625 16.4375 213.566406 17.636719 213.570312 17.628906 C 213.566406 17.640625 214.472656 18.320312 215.601562 17.863281 C 216.679688 17.378906 217.660156 16.136719 217.691406 16.15625 " fill-opacity="1" fill-rule="nonzero"/><path fill="#001b70" d="M 214.945312 14.542969 C 214.292969 15.640625 213.890625 16.859375 213.40625 18.039062 L 213.152344 17.953125 C 213.644531 16.761719 214.046875 15.53125 214.707031 14.414062 L 214.945312 14.542969 " fill-opacity="1" fill-rule="nonzero"/><path fill="#001b70" d="M 213.992188 9.578125 C 213.992188 9.574219 215.210938 10.972656 215.429688 12.210938 C 215.609375 13.417969 214.828125 14.210938 214.8125 14.21875 C 214.820312 14.207031 213.652344 14.066406 213.339844 12.78125 C 213.011719 11.476562 214.011719 9.589844 213.992188 9.578125 " fill-opacity="1" fill-rule="nonzero"/><path fill="#001b70" d="M 219.429688 13.363281 C 219.425781 13.363281 217.84375 12.503906 216.621094 12.734375 C 215.355469 12.949219 215.132812 14.152344 215.152344 14.148438 C 215.144531 14.160156 215.953125 14.984375 217.097656 14.695312 C 218.261719 14.433594 219.445312 13.375 219.429688 13.363281 " fill-opacity="1" fill-rule="nonzero"/><path fill="#001b70" d="M 216.984375 11.3125 C 216.277344 12.371094 215.488281 13.382812 214.945312 14.542969 L 214.707031 14.414062 C 215.257812 13.242188 216.054688 12.21875 216.769531 11.148438 L 216.984375 11.3125 " fill-opacity="1" fill-rule="nonzero"/><path fill="#001b70" d="M 220.675781 7.203125 C 220.707031 7.207031 218.402344 7.550781 217.289062 8.777344 C 216.210938 10.035156 216.800781 11.316406 216.808594 11.3125 C 216.808594 11.304688 218.238281 11.613281 219.1875 10.5 C 220.167969 9.417969 220.679688 7.226562 220.675781 7.203125 " fill-opacity="1" fill-rule="nonzero"/><path fill="#001b70" d="M 274.042969 38.425781 C 274.03125 38.421875 272.242188 38.152344 271.066406 38.617188 C 269.902344 39.085938 269.738281 40.222656 269.738281 40.230469 C 269.742188 40.226562 270.542969 41.078125 271.742188 40.640625 C 272.949219 40.234375 274.058594 38.441406 274.042969 38.425781 " fill-opacity="1" fill-rule="nonzero"/><path fill="#001b70" d="M 267.933594 35.839844 C 267.925781 35.839844 269.527344 36.734375 269.988281 37.898438 C 270.441406 39.0625 269.597656 39.921875 269.597656 39.910156 C 269.597656 39.914062 268.457031 39.75 268.050781 38.585938 C 267.664062 37.417969 267.953125 35.835938 267.933594 35.839844 " fill-opacity="1" fill-rule="nonzero"/><path fill="#001b70" d="M 270.96875 36.816406 C 270.53125 38.011719 269.972656 39.164062 269.402344 40.308594 L 269.640625 40.429688 C 270.214844 39.28125 270.777344 38.121094 271.21875 36.90625 L 270.96875 36.816406 " fill-opacity="1" fill-rule="nonzero"/><path fill="#001b70" d="M 275.285156 34.164062 C 275.285156 34.164062 273.433594 34.222656 272.382812 34.894531 C 271.292969 35.546875 271.320312 36.691406 271.300781 36.699219 C 271.292969 36.683594 272.203125 37.472656 273.339844 36.835938 C 274.515625 36.203125 275.296875 34.167969 275.285156 34.164062 " fill-opacity="1" fill-rule="nonzero"/><path fill="#001b70" d="M 268.816406 32.726562 C 268.816406 32.726562 270.527344 33.300781 271.195312 34.363281 C 271.851562 35.433594 271.105469 36.410156 271.125 36.398438 C 271.121094 36.414062 269.992188 36.359375 269.398438 35.304688 C 268.851562 34.265625 268.800781 32.726562 268.816406 32.726562 " fill-opacity="1" fill-rule="nonzero"/><path fill="#001b70" d="M 271.976562 33.132812 C 271.734375 34.382812 271.421875 35.621094 270.96875 36.816406 L 271.21875 36.90625 C 271.679688 35.699219 271.996094 34.445312 272.242188 33.179688 L 271.976562 33.132812 " fill-opacity="1" fill-rule="nonzero"/><path fill="#001b70" d="M 275.703125 29.71875 C 275.703125 29.714844 273.894531 30.117188 272.992188 30.976562 C 272.070312 31.828125 272.257812 32.941406 272.269531 32.957031 C 272.273438 32.941406 273.300781 33.554688 274.292969 32.707031 C 275.355469 31.855469 275.699219 29.714844 275.703125 29.71875 " fill-opacity="1" fill-rule="nonzero"/><path fill="#001b70" d="M 269.078125 29.515625 C 269.078125 29.519531 270.867188 29.765625 271.722656 30.683594 C 272.601562 31.609375 272.007812 32.707031 272.035156 32.695312 C 272.03125 32.707031 270.910156 32.863281 270.136719 31.945312 C 269.425781 31.046875 269.046875 29.515625 269.078125 29.515625 " fill-opacity="1" fill-rule="nonzero"/><path fill="#001b70" d="M 272.261719 29.324219 C 272.265625 30.601562 272.179688 31.871094 271.976562 33.132812 L 272.242188 33.179688 C 272.445312 31.898438 272.535156 30.613281 272.53125 29.320312 L 272.261719 29.324219 " fill-opacity="1" fill-rule="nonzero"/><path fill="#001b70" d="M 275.367188 25.425781 C 275.359375 25.429688 273.648438 26.019531 272.878906 27.023438 C 272.074219 28.027344 272.523438 29.085938 272.527344 29.097656 C 272.527344 29.085938 273.652344 29.488281 274.460938 28.484375 C 275.304688 27.425781 275.390625 25.378906 275.367188 25.425781 " fill-opacity="1" fill-rule="nonzero"/><path fill="#001b70" d="M 268.765625 26.125 C 268.765625 26.128906 270.59375 26.183594 271.59375 26.953125 C 272.535156 27.726562 272.242188 28.894531 272.242188 28.882812 C 272.242188 28.898438 271.171875 29.261719 270.234375 28.488281 C 269.339844 27.769531 268.785156 26.152344 268.765625 26.125 " fill-opacity="1" fill-rule="nonzero"/><path fill="#001b70" d="M 271.890625 25.515625 C 272.109375 26.78125 272.191406 28.054688 272.261719 29.324219 L 272.53125 29.320312 C 272.460938 28.035156 272.375 26.742188 272.15625 25.476562 L 271.890625 25.515625 " fill-opacity="1" fill-rule="nonzero"/><path fill="#001b70" d="M 274.675781 21.40625 C 274.675781 21.40625 272.992188 22.136719 272.308594 23.179688 C 271.617188 24.21875 272.113281 25.253906 272.125 25.257812 C 272.125 25.253906 273.265625 25.488281 274.003906 24.445312 C 274.777344 23.40625 274.675781 21.40625 274.675781 21.40625 " fill-opacity="1" fill-rule="nonzero"/><path fill="#001b70" d="M 268.148438 22.574219 C 268.148438 22.574219 269.964844 22.488281 271.007812 23.191406 C 272.070312 23.894531 271.8125 25.082031 271.828125 25.074219 C 271.828125 25.078125 270.796875 25.601562 269.804688 24.878906 C 268.847656 24.132812 268.128906 22.578125 268.148438 22.574219 " fill-opacity="1" fill-rule="nonzero"/><path fill="#001b70" d="M 271.222656 21.738281 C 271.503906 22.988281 271.734375 24.242188 271.890625 25.515625 L 272.15625 25.476562 C 271.996094 24.203125 271.765625 22.9375 271.484375 21.679688 L 271.222656 21.738281 " fill-opacity="1" fill-rule="nonzero"/><path fill="#001b70" d="M 273.617188 17.335938 C 273.617188 17.332031 272.015625 18.261719 271.421875 19.371094 C 270.859375 20.472656 271.449219 21.453125 271.441406 21.460938 C 271.4375 21.457031 272.589844 21.613281 273.257812 20.5 C 273.898438 19.386719 273.609375 17.332031 273.617188 17.335938 " fill-opacity="1" fill-rule="nonzero"/><path fill="#001b70" d="M 267.265625 19.210938 C 267.265625 19.210938 269.046875 18.914062 270.132812 19.511719 C 271.242188 20.109375 271.15625 21.304688 271.132812 21.304688 C 271.132812 21.308594 270.136719 21.902344 269.109375 21.269531 C 268.027344 20.667969 267.261719 19.210938 267.265625 19.210938 " fill-opacity="1" fill-rule="nonzero"/><path fill="#001b70" d="M 270.226562 18.039062 C 270.566406 19.269531 271.007812 20.476562 271.222656 21.738281 L 271.484375 21.679688 C 271.269531 20.410156 270.824219 19.191406 270.480469 17.953125 L 270.226562 18.039062 " fill-opacity="1" fill-rule="nonzero"/><path fill="#001b70" d="M 271.945312 13.320312 C 271.929688 13.324219 270.558594 14.472656 270.113281 15.664062 C 269.648438 16.859375 270.394531 17.734375 270.398438 17.746094 C 270.394531 17.734375 271.585938 17.769531 272.058594 16.570312 C 272.574219 15.355469 271.996094 13.300781 271.945312 13.320312 " fill-opacity="1" fill-rule="nonzero"/><path fill="#001b70" d="M 265.945312 16.15625 C 265.941406 16.160156 267.675781 15.558594 268.867188 15.976562 C 269.992188 16.4375 270.070312 17.636719 270.0625 17.628906 C 270.066406 17.640625 269.160156 18.320312 268.03125 17.863281 C 266.953125 17.378906 265.976562 16.136719 265.945312 16.15625 " fill-opacity="1" fill-rule="nonzero"/><path fill="#001b70" d="M 268.6875 14.542969 C 269.339844 15.640625 269.742188 16.859375 270.226562 18.039062 L 270.480469 17.953125 C 269.992188 16.761719 269.585938 15.53125 268.925781 14.414062 L 268.6875 14.542969 " fill-opacity="1" fill-rule="nonzero"/><path fill="#001b70" d="M 269.640625 9.578125 C 269.640625 9.574219 268.421875 10.972656 268.203125 12.210938 C 268.023438 13.417969 268.808594 14.210938 268.820312 14.21875 C 268.816406 14.207031 269.984375 14.066406 270.292969 12.78125 C 270.621094 11.476562 269.621094 9.589844 269.640625 9.578125 " fill-opacity="1" fill-rule="nonzero"/><path fill="#001b70" d="M 264.207031 13.363281 C 264.207031 13.363281 265.792969 12.503906 267.015625 12.734375 C 268.28125 12.949219 268.5 14.152344 268.480469 14.148438 C 268.488281 14.160156 267.679688 14.984375 266.539062 14.695312 C 265.371094 14.433594 264.191406 13.375 264.207031 13.363281 " fill-opacity="1" fill-rule="nonzero"/><path fill="#001b70" d="M 266.652344 11.3125 C 267.355469 12.371094 268.148438 13.382812 268.6875 14.542969 L 268.925781 14.414062 C 268.378906 13.242188 267.578125 12.21875 266.863281 11.148438 L 266.652344 11.3125 " fill-opacity="1" fill-rule="nonzero"/><path fill="#001b70" d="M 262.957031 7.203125 C 262.929688 7.207031 265.230469 7.550781 266.347656 8.777344 C 267.425781 10.035156 266.832031 11.316406 266.824219 11.3125 C 266.824219 11.304688 265.394531 11.613281 264.445312 10.5 C 263.464844 9.417969 262.953125 7.226562 262.957031 7.203125 " fill-opacity="1" fill-rule="nonzero"/><g transform="matrix(1, 0, 0, 1, 228, 15)"><g clip-path="url(#df5dd4b1ec)"><g clip-path="url(#e37262950b)"><g fill="#af005f" fill-opacity="1"><g transform="translate(0.354651, 20.080771)"><g><path d="M 7.1875 -18.796875 C 8.070312 -18.796875 8.867188 -18.625 9.578125 -18.28125 C 10.285156 -17.945312 10.84375 -17.484375 11.25 -16.890625 C 11.65625 -16.296875 11.859375 -15.640625 11.859375 -14.921875 C 11.859375 -13.453125 11.003906 -12.257812 9.296875 -11.34375 C 10.390625 -10.894531 11.238281 -10.242188 11.84375 -9.390625 C 12.457031 -8.535156 12.765625 -7.566406 12.765625 -6.484375 C 12.765625 -5.335938 12.453125 -4.242188 11.828125 -3.203125 C 11.210938 -2.160156 10.296875 -1.3125 9.078125 -0.65625 C 7.867188 0 6.429688 0.328125 4.765625 0.328125 C 3.453125 0.328125 2.414062 0.132812 1.65625 -0.25 C 0.90625 -0.632812 0.53125 -1.171875 0.53125 -1.859375 C 0.53125 -2.234375 0.671875 -2.5625 0.953125 -2.84375 C 1.234375 -3.125 1.5625 -3.265625 1.9375 -3.265625 C 2.28125 -3.265625 2.601562 -3.171875 2.90625 -2.984375 C 3.207031 -2.804688 3.578125 -2.539062 4.015625 -2.1875 C 4.492188 -1.75 4.945312 -1.410156 5.375 -1.171875 C 5.8125 -0.929688 6.3125 -0.8125 6.875 -0.8125 C 7.65625 -0.8125 8.320312 -1.101562 8.875 -1.6875 C 9.4375 -2.269531 9.71875 -2.972656 9.71875 -3.796875 C 9.71875 -4.640625 9.488281 -5.441406 9.03125 -6.203125 C 8.570312 -6.972656 7.9375 -7.632812 7.125 -8.1875 C 6.320312 -8.75 5.410156 -9.128906 4.390625 -9.328125 L 4.390625 -9.828125 C 5.578125 -10.066406 6.5 -10.503906 7.15625 -11.140625 C 7.8125 -11.773438 8.140625 -12.539062 8.140625 -13.4375 C 8.140625 -14.28125 7.847656 -14.972656 7.265625 -15.515625 C 6.691406 -16.066406 5.96875 -16.34375 5.09375 -16.34375 C 4.375 -16.34375 3.703125 -16.148438 3.078125 -15.765625 C 2.460938 -15.378906 1.96875 -14.859375 1.59375 -14.203125 L 1.125 -14.328125 C 1.664062 -15.785156 2.46875 -16.894531 3.53125 -17.65625 C 4.59375 -18.414062 5.8125 -18.796875 7.1875 -18.796875 Z M 7.1875 -18.796875 "/></g></g></g></g><g fill="#af005f" fill-opacity="1"><g transform="translate(13.819217, 20.080771)"><g><path d="M 8.78125 -18.796875 L 8.78125 -2.5 C 8.78125 -1.800781 8.953125 -1.289062 9.296875 -0.96875 C 9.640625 -0.644531 10.285156 -0.484375 11.234375 -0.484375 L 11.453125 -0.484375 L 11.453125 0 L 1.890625 0 L 1.890625 -0.484375 L 2.6875 -0.484375 C 3.394531 -0.484375 3.925781 -0.613281 4.28125 -0.875 C 4.644531 -1.132812 4.828125 -1.660156 4.828125 -2.453125 L 4.828125 -14.09375 C 4.828125 -15.207031 4.359375 -15.765625 3.421875 -15.765625 C 3.191406 -15.765625 2.976562 -15.734375 2.78125 -15.671875 C 2.582031 -15.617188 2.285156 -15.503906 1.890625 -15.328125 L 1.640625 -15.78125 L 8.328125 -18.796875 Z M 8.78125 -18.796875 "/></g></g></g></g></g><g transform="matrix(1, 0, 0, 1, 228, 37)"><g clip-path="url(#6656bc06df)"><g clip-path="url(#5aba9eb911)"><g fill="#af005f" fill-opacity="1"><g transform="translate(1.075344, 5.530243)"><g><path d="M 2.484375 -4.96875 C 2.296875 -4.96875 2.164062 -4.953125 2.09375 -4.921875 C 2.03125 -4.890625 2 -4.832031 2 -4.75 C 2 -4.675781 2.03125 -4.578125 2.09375 -4.453125 L 3.203125 -2.375 L 4.15625 -4.1875 C 4.257812 -4.382812 4.3125 -4.535156 4.3125 -4.640625 C 4.3125 -4.765625 4.257812 -4.847656 4.15625 -4.890625 C 4.050781 -4.941406 3.90625 -4.96875 3.71875 -4.96875 L 3.71875 -5.109375 L 5.25 -5.109375 L 5.25 -4.96875 C 5.15625 -4.96875 5.070312 -4.945312 5 -4.90625 C 4.925781 -4.875 4.847656 -4.800781 4.765625 -4.6875 C 4.679688 -4.582031 4.582031 -4.414062 4.46875 -4.1875 L 3.375 -2.109375 L 3.375 -0.765625 C 3.375 -0.566406 3.394531 -0.425781 3.4375 -0.34375 C 3.476562 -0.257812 3.546875 -0.203125 3.640625 -0.171875 C 3.742188 -0.148438 3.914062 -0.140625 4.15625 -0.140625 L 4.15625 0 L 1.390625 0 L 1.390625 -0.140625 C 1.597656 -0.140625 1.753906 -0.15625 1.859375 -0.1875 C 1.972656 -0.226562 2.050781 -0.289062 2.09375 -0.375 C 2.144531 -0.457031 2.171875 -0.59375 2.171875 -0.78125 L 2.171875 -1.890625 L 0.875 -4.296875 C 0.769531 -4.492188 0.679688 -4.632812 0.609375 -4.71875 C 0.546875 -4.8125 0.476562 -4.875 0.40625 -4.90625 C 0.332031 -4.945312 0.234375 -4.96875 0.109375 -4.96875 L 0.109375 -5.109375 L 2.484375 -5.109375 Z M 2.484375 -4.96875 "/></g></g></g></g><g clip-path="url(#825260eec9)"><g fill="#af005f" fill-opacity="1"><g transform="translate(6.42133, 5.530243)"><g><path d="M 4.4375 -3.65625 L 4.3125 -3.65625 C 4.238281 -4.039062 4.097656 -4.332031 3.890625 -4.53125 C 3.679688 -4.726562 3.410156 -4.828125 3.078125 -4.828125 L 2.0625 -4.828125 L 2.0625 -2.75 L 2.21875 -2.75 C 2.40625 -2.75 2.5625 -2.773438 2.6875 -2.828125 C 2.8125 -2.890625 2.914062 -3.003906 3 -3.171875 C 3.082031 -3.347656 3.144531 -3.59375 3.1875 -3.90625 L 3.3125 -3.90625 L 3.3125 -1.3125 L 3.1875 -1.3125 C 3.125 -1.769531 3.015625 -2.078125 2.859375 -2.234375 C 2.710938 -2.390625 2.507812 -2.46875 2.25 -2.46875 L 2.0625 -2.46875 L 2.0625 -0.828125 C 2.0625 -0.609375 2.09375 -0.460938 2.15625 -0.390625 C 2.226562 -0.316406 2.351562 -0.28125 2.53125 -0.28125 L 3.078125 -0.28125 C 3.503906 -0.28125 3.84375 -0.394531 4.09375 -0.625 C 4.34375 -0.863281 4.53125 -1.179688 4.65625 -1.578125 L 4.796875 -1.578125 L 4.5625 0 L 0.140625 0 L 0.140625 -0.140625 L 0.3125 -0.140625 C 0.476562 -0.140625 0.601562 -0.164062 0.6875 -0.21875 C 0.769531 -0.269531 0.820312 -0.335938 0.84375 -0.421875 C 0.863281 -0.503906 0.875 -0.617188 0.875 -0.765625 L 0.875 -4.359375 C 0.875 -4.609375 0.816406 -4.769531 0.703125 -4.84375 C 0.597656 -4.925781 0.410156 -4.96875 0.140625 -4.96875 L 0.140625 -5.109375 L 4.4375 -5.109375 Z M 4.4375 -3.65625 "/></g></g></g></g><g clip-path="url(#7414cc12e8)"><g fill="#af005f" fill-opacity="1"><g transform="translate(11.380681, 5.530243)"><g><path d="M 0.9375 -1.015625 L 2.671875 -5.1875 L 2.75 -5.1875 L 4.46875 -1 C 4.582031 -0.71875 4.691406 -0.503906 4.796875 -0.359375 C 4.910156 -0.210938 5.054688 -0.140625 5.234375 -0.140625 L 5.234375 0 L 2.84375 0 L 2.84375 -0.140625 C 3.082031 -0.140625 3.238281 -0.15625 3.3125 -0.1875 C 3.394531 -0.21875 3.4375 -0.289062 3.4375 -0.40625 C 3.4375 -0.445312 3.425781 -0.488281 3.40625 -0.53125 C 3.394531 -0.570312 3.382812 -0.609375 3.375 -0.640625 L 3.0625 -1.4375 L 1.421875 -1.4375 L 1.1875 -0.890625 C 1.113281 -0.742188 1.078125 -0.617188 1.078125 -0.515625 C 1.078125 -0.367188 1.132812 -0.269531 1.25 -0.21875 C 1.363281 -0.164062 1.523438 -0.140625 1.734375 -0.140625 L 1.734375 0 L 0.109375 0 L 0.109375 -0.140625 C 0.273438 -0.148438 0.425781 -0.222656 0.5625 -0.359375 C 0.695312 -0.503906 0.820312 -0.722656 0.9375 -1.015625 Z M 2.9375 -1.71875 L 2.234375 -3.421875 L 1.53125 -1.71875 Z M 2.9375 -1.71875 "/></g></g></g></g><g clip-path="url(#c8a3aa8bbc)"><g fill="#af005f" fill-opacity="1"><g transform="translate(16.726667, 5.530243)"><g><path d="M 4.625 -3.703125 C 4.625 -3.390625 4.519531 -3.117188 4.3125 -2.890625 C 4.113281 -2.660156 3.84375 -2.503906 3.5 -2.421875 L 4.5 -0.78125 C 4.632812 -0.570312 4.753906 -0.410156 4.859375 -0.296875 C 4.972656 -0.191406 5.085938 -0.140625 5.203125 -0.140625 L 5.203125 0 L 3.703125 0 L 2.28125 -2.328125 L 2.046875 -2.328125 L 2.046875 -0.78125 C 2.046875 -0.582031 2.070312 -0.4375 2.125 -0.34375 C 2.175781 -0.257812 2.25 -0.203125 2.34375 -0.171875 C 2.445312 -0.148438 2.597656 -0.140625 2.796875 -0.140625 L 2.796875 0 L 0.140625 0 L 0.140625 -0.140625 C 0.328125 -0.140625 0.46875 -0.148438 0.5625 -0.171875 C 0.664062 -0.203125 0.738281 -0.265625 0.78125 -0.359375 C 0.832031 -0.453125 0.859375 -0.59375 0.859375 -0.78125 L 0.859375 -4.40625 C 0.859375 -4.625 0.800781 -4.769531 0.6875 -4.84375 C 0.570312 -4.925781 0.390625 -4.96875 0.140625 -4.96875 L 0.140625 -5.109375 L 2.765625 -5.109375 C 3.316406 -5.109375 3.765625 -4.984375 4.109375 -4.734375 C 4.453125 -4.484375 4.625 -4.140625 4.625 -3.703125 Z M 2.453125 -2.609375 C 2.691406 -2.609375 2.910156 -2.6875 3.109375 -2.84375 C 3.304688 -3 3.40625 -3.289062 3.40625 -3.71875 C 3.40625 -4.457031 3.046875 -4.828125 2.328125 -4.828125 L 2.046875 -4.828125 L 2.046875 -2.609375 Z M 2.453125 -2.609375 "/></g></g></g></g><g clip-path="url(#b2642686b9)"><g fill="#af005f" fill-opacity="1"><g transform="translate(22.072653, 5.530243)"><g><path d="M 2 -5.21875 C 2.226562 -5.21875 2.425781 -5.191406 2.59375 -5.140625 C 2.757812 -5.097656 2.945312 -5.035156 3.15625 -4.953125 C 3.21875 -4.921875 3.28125 -4.894531 3.34375 -4.875 C 3.414062 -4.851562 3.472656 -4.84375 3.515625 -4.84375 C 3.597656 -4.84375 3.660156 -4.875 3.703125 -4.9375 C 3.753906 -5 3.78125 -5.09375 3.78125 -5.21875 L 3.921875 -5.21875 L 3.921875 -3.5625 L 3.78125 -3.5625 C 3.738281 -3.832031 3.632812 -4.070312 3.46875 -4.28125 C 3.300781 -4.488281 3.09375 -4.648438 2.84375 -4.765625 C 2.601562 -4.878906 2.347656 -4.9375 2.078125 -4.9375 C 1.773438 -4.9375 1.523438 -4.863281 1.328125 -4.71875 C 1.140625 -4.570312 1.046875 -4.390625 1.046875 -4.171875 C 1.046875 -4.003906 1.101562 -3.863281 1.21875 -3.75 C 1.332031 -3.632812 1.472656 -3.539062 1.640625 -3.46875 C 1.804688 -3.394531 2.039062 -3.304688 2.34375 -3.203125 C 2.644531 -3.109375 2.894531 -3.015625 3.09375 -2.921875 C 3.300781 -2.835938 3.484375 -2.738281 3.640625 -2.625 C 3.816406 -2.476562 3.957031 -2.304688 4.0625 -2.109375 C 4.175781 -1.910156 4.234375 -1.6875 4.234375 -1.4375 C 4.234375 -1.132812 4.148438 -0.863281 3.984375 -0.625 C 3.828125 -0.394531 3.597656 -0.210938 3.296875 -0.078125 C 3.003906 0.046875 2.664062 0.109375 2.28125 0.109375 C 2.039062 0.109375 1.835938 0.0859375 1.671875 0.046875 C 1.503906 0.00390625 1.332031 -0.0507812 1.15625 -0.125 C 1 -0.195312 0.878906 -0.234375 0.796875 -0.234375 C 0.703125 -0.234375 0.625 -0.203125 0.5625 -0.140625 C 0.5 -0.0859375 0.441406 -0.00390625 0.390625 0.109375 L 0.25 0.109375 L 0.25 -1.765625 L 0.390625 -1.765625 C 0.484375 -1.273438 0.695312 -0.882812 1.03125 -0.59375 C 1.363281 -0.300781 1.769531 -0.15625 2.25 -0.15625 C 2.601562 -0.15625 2.882812 -0.226562 3.09375 -0.375 C 3.300781 -0.519531 3.40625 -0.71875 3.40625 -0.96875 C 3.40625 -1.15625 3.34375 -1.316406 3.21875 -1.453125 C 3.101562 -1.585938 2.953125 -1.695312 2.765625 -1.78125 C 2.585938 -1.863281 2.34375 -1.957031 2.03125 -2.0625 C 1.65625 -2.195312 1.347656 -2.320312 1.109375 -2.4375 C 0.878906 -2.5625 0.679688 -2.726562 0.515625 -2.9375 C 0.347656 -3.144531 0.265625 -3.410156 0.265625 -3.734375 C 0.265625 -4.015625 0.335938 -4.265625 0.484375 -4.484375 C 0.628906 -4.710938 0.832031 -4.890625 1.09375 -5.015625 C 1.363281 -5.148438 1.664062 -5.21875 2 -5.21875 Z M 2 -5.21875 "/></g></g></g></g></g></g><g transform="matrix(1, 0, 0, 1, 220, 49)"><g clip-path="url(#a2fb433e41)"><g clip-path="url(#cf77797995)"><g fill="#ffffff" fill-opacity="1"><g transform="translate(1.302516, 5.396958)"><g><path d="M 0.890625 -0.953125 L 2.5 -4.859375 L 2.578125 -4.859375 L 4.1875 -0.9375 C 4.289062 -0.675781 4.394531 -0.472656 4.5 -0.328125 C 4.601562 -0.191406 4.738281 -0.125 4.90625 -0.125 L 4.90625 0 L 2.671875 0 L 2.671875 -0.125 C 2.890625 -0.125 3.035156 -0.140625 3.109375 -0.171875 C 3.179688 -0.203125 3.21875 -0.273438 3.21875 -0.390625 C 3.21875 -0.421875 3.207031 -0.457031 3.1875 -0.5 C 3.175781 -0.539062 3.164062 -0.570312 3.15625 -0.59375 L 2.859375 -1.359375 L 1.328125 -1.359375 L 1.109375 -0.828125 C 1.046875 -0.703125 1.015625 -0.585938 1.015625 -0.484375 C 1.015625 -0.335938 1.066406 -0.238281 1.171875 -0.1875 C 1.285156 -0.144531 1.4375 -0.125 1.625 -0.125 L 1.625 0 L 0.09375 0 L 0.09375 -0.125 C 0.25 -0.132812 0.390625 -0.203125 0.515625 -0.328125 C 0.640625 -0.460938 0.765625 -0.671875 0.890625 -0.953125 Z M 2.765625 -1.609375 L 2.09375 -3.21875 L 1.4375 -1.609375 Z M 2.765625 -1.609375 "/></g></g></g></g><g clip-path="url(#5d59f0a49a)"><g fill="#ffffff" fill-opacity="1"><g transform="translate(5.962314, 5.396958)"><g><path d="M 2.8125 -4.890625 C 3.050781 -4.890625 3.25 -4.867188 3.40625 -4.828125 C 3.5625 -4.785156 3.734375 -4.726562 3.921875 -4.65625 C 3.929688 -4.644531 3.972656 -4.625 4.046875 -4.59375 C 4.128906 -4.5625 4.203125 -4.546875 4.265625 -4.546875 C 4.441406 -4.546875 4.550781 -4.660156 4.59375 -4.890625 L 4.734375 -4.890625 L 4.734375 -3.28125 L 4.59375 -3.28125 C 4.550781 -3.539062 4.453125 -3.769531 4.296875 -3.96875 C 4.148438 -4.164062 3.96875 -4.316406 3.75 -4.421875 C 3.539062 -4.523438 3.328125 -4.578125 3.109375 -4.578125 C 2.796875 -4.578125 2.519531 -4.484375 2.28125 -4.296875 C 2.050781 -4.109375 1.875 -3.847656 1.75 -3.515625 C 1.625 -3.179688 1.5625 -2.804688 1.5625 -2.390625 C 1.5625 -1.703125 1.695312 -1.160156 1.96875 -0.765625 C 2.238281 -0.378906 2.609375 -0.1875 3.078125 -0.1875 C 3.378906 -0.1875 3.648438 -0.257812 3.890625 -0.40625 C 4.140625 -0.550781 4.390625 -0.769531 4.640625 -1.0625 L 4.640625 -0.6875 C 4.378906 -0.40625 4.109375 -0.203125 3.828125 -0.078125 C 3.546875 0.0351562 3.222656 0.09375 2.859375 0.09375 C 2.347656 0.09375 1.898438 -0.0078125 1.515625 -0.21875 C 1.128906 -0.4375 0.832031 -0.726562 0.625 -1.09375 C 0.425781 -1.457031 0.328125 -1.863281 0.328125 -2.3125 C 0.328125 -2.769531 0.4375 -3.195312 0.65625 -3.59375 C 0.882812 -3.988281 1.1875 -4.300781 1.5625 -4.53125 C 1.945312 -4.769531 2.363281 -4.890625 2.8125 -4.890625 Z M 2.8125 -4.890625 "/></g></g></g></g><g clip-path="url(#d2d5e1b409)"><g fill="#ffffff" fill-opacity="1"><g transform="translate(10.970392, 5.396958)"><g><path d="M 0.890625 -0.953125 L 2.5 -4.859375 L 2.578125 -4.859375 L 4.1875 -0.9375 C 4.289062 -0.675781 4.394531 -0.472656 4.5 -0.328125 C 4.601562 -0.191406 4.738281 -0.125 4.90625 -0.125 L 4.90625 0 L 2.671875 0 L 2.671875 -0.125 C 2.890625 -0.125 3.035156 -0.140625 3.109375 -0.171875 C 3.179688 -0.203125 3.21875 -0.273438 3.21875 -0.390625 C 3.21875 -0.421875 3.207031 -0.457031 3.1875 -0.5 C 3.175781 -0.539062 3.164062 -0.570312 3.15625 -0.59375 L 2.859375 -1.359375 L 1.328125 -1.359375 L 1.109375 -0.828125 C 1.046875 -0.703125 1.015625 -0.585938 1.015625 -0.484375 C 1.015625 -0.335938 1.066406 -0.238281 1.171875 -0.1875 C 1.285156 -0.144531 1.4375 -0.125 1.625 -0.125 L 1.625 0 L 0.09375 0 L 0.09375 -0.125 C 0.25 -0.132812 0.390625 -0.203125 0.515625 -0.328125 C 0.640625 -0.460938 0.765625 -0.671875 0.890625 -0.953125 Z M 2.765625 -1.609375 L 2.09375 -3.21875 L 1.4375 -1.609375 Z M 2.765625 -1.609375 "/></g></g></g></g><g clip-path="url(#433842903f)"><g fill="#ffffff" fill-opacity="1"><g transform="translate(15.97847, 5.396958)"><g><path d="M 5.125 -2.359375 C 5.125 -1.867188 5.019531 -1.441406 4.8125 -1.078125 C 4.601562 -0.722656 4.316406 -0.453125 3.953125 -0.265625 C 3.585938 -0.0859375 3.179688 0 2.734375 0 L 0.125 0 L 0.125 -0.125 C 0.289062 -0.125 0.414062 -0.132812 0.5 -0.15625 C 0.59375 -0.1875 0.660156 -0.242188 0.703125 -0.328125 C 0.753906 -0.410156 0.78125 -0.539062 0.78125 -0.71875 L 0.78125 -4.0625 C 0.78125 -4.238281 0.753906 -4.367188 0.703125 -4.453125 C 0.660156 -4.535156 0.59375 -4.585938 0.5 -4.609375 C 0.414062 -4.640625 0.289062 -4.65625 0.125 -4.65625 L 0.125 -4.78125 L 2.625 -4.78125 C 3.070312 -4.78125 3.488281 -4.6875 3.875 -4.5 C 4.257812 -4.320312 4.5625 -4.050781 4.78125 -3.6875 C 5.007812 -3.320312 5.125 -2.878906 5.125 -2.359375 Z M 2.421875 -0.25 C 3.398438 -0.25 3.890625 -0.941406 3.890625 -2.328125 C 3.890625 -3.097656 3.75 -3.660156 3.46875 -4.015625 C 3.1875 -4.367188 2.832031 -4.546875 2.40625 -4.546875 L 1.890625 -4.546875 L 1.890625 -0.703125 C 1.890625 -0.578125 1.90625 -0.476562 1.9375 -0.40625 C 1.96875 -0.34375 2.019531 -0.300781 2.09375 -0.28125 C 2.164062 -0.257812 2.273438 -0.25 2.421875 -0.25 Z M 2.421875 -0.25 "/></g></g></g></g><g clip-path="url(#dfc2e4a20c)"><g fill="#ffffff" fill-opacity="1"><g transform="translate(21.348743, 5.396958)"><g><path d="M 4.15625 -3.421875 L 4.03125 -3.421875 C 3.96875 -3.785156 3.835938 -4.0625 3.640625 -4.25 C 3.453125 -4.4375 3.195312 -4.53125 2.875 -4.53125 L 1.9375 -4.53125 L 1.9375 -2.578125 L 2.078125 -2.578125 C 2.253906 -2.578125 2.398438 -2.601562 2.515625 -2.65625 C 2.628906 -2.707031 2.722656 -2.8125 2.796875 -2.96875 C 2.878906 -3.132812 2.941406 -3.367188 2.984375 -3.671875 L 3.109375 -3.671875 L 3.109375 -1.234375 L 2.984375 -1.234375 C 2.929688 -1.660156 2.832031 -1.945312 2.6875 -2.09375 C 2.539062 -2.238281 2.347656 -2.3125 2.109375 -2.3125 L 1.9375 -2.3125 L 1.9375 -0.78125 C 1.9375 -0.570312 1.96875 -0.429688 2.03125 -0.359375 C 2.09375 -0.296875 2.207031 -0.265625 2.375 -0.265625 L 2.875 -0.265625 C 3.28125 -0.265625 3.597656 -0.375 3.828125 -0.59375 C 4.066406 -0.8125 4.25 -1.109375 4.375 -1.484375 L 4.5 -1.484375 L 4.28125 0 L 0.125 0 L 0.125 -0.125 L 0.28125 -0.125 C 0.445312 -0.125 0.566406 -0.144531 0.640625 -0.1875 C 0.722656 -0.238281 0.773438 -0.304688 0.796875 -0.390625 C 0.816406 -0.472656 0.828125 -0.578125 0.828125 -0.703125 L 0.828125 -4.09375 C 0.828125 -4.320312 0.773438 -4.472656 0.671875 -4.546875 C 0.566406 -4.617188 0.382812 -4.65625 0.125 -4.65625 L 0.125 -4.78125 L 4.15625 -4.78125 Z M 4.15625 -3.421875 "/></g></g></g></g><g clip-path="url(#c6daaf7fb7)"><g fill="#ffffff" fill-opacity="1"><g transform="translate(25.994626, 5.396958)"><g><path d="M 3.46875 -1.5 L 4.9375 -4.78125 L 6.796875 -4.78125 L 6.796875 -4.65625 C 6.640625 -4.65625 6.519531 -4.640625 6.4375 -4.609375 C 6.351562 -4.585938 6.285156 -4.535156 6.234375 -4.453125 C 6.191406 -4.378906 6.171875 -4.265625 6.171875 -4.109375 L 6.171875 -0.734375 C 6.171875 -0.546875 6.191406 -0.410156 6.234375 -0.328125 C 6.285156 -0.242188 6.351562 -0.1875 6.4375 -0.15625 C 6.519531 -0.132812 6.640625 -0.125 6.796875 -0.125 L 6.796875 0 L 4.375 0 L 4.375 -0.125 C 4.550781 -0.125 4.6875 -0.132812 4.78125 -0.15625 C 4.875 -0.1875 4.941406 -0.242188 4.984375 -0.328125 C 5.035156 -0.410156 5.0625 -0.539062 5.0625 -0.71875 L 5.0625 -4.421875 L 5.046875 -4.421875 L 3.0625 0 L 2.96875 0 L 1 -4.390625 L 0.984375 -4.390625 L 0.984375 -0.703125 C 0.984375 -0.503906 1.035156 -0.359375 1.140625 -0.265625 C 1.253906 -0.171875 1.425781 -0.125 1.65625 -0.125 L 1.65625 0 L 0.109375 0 L 0.109375 -0.125 C 0.316406 -0.125 0.472656 -0.175781 0.578125 -0.28125 C 0.679688 -0.394531 0.734375 -0.539062 0.734375 -0.71875 L 0.734375 -4.0625 C 0.734375 -4.226562 0.710938 -4.351562 0.671875 -4.4375 C 0.640625 -4.519531 0.578125 -4.578125 0.484375 -4.609375 C 0.398438 -4.640625 0.273438 -4.65625 0.109375 -4.65625 L 0.109375 -4.78125 L 1.984375 -4.78125 Z M 3.46875 -1.5 "/></g></g></g></g><g clip-path="url(#0b7e1fe961)"><g fill="#ffffff" fill-opacity="1"><g transform="translate(32.89031, 5.396958)"><g><path d="M 2.578125 -4.65625 C 2.398438 -4.65625 2.265625 -4.640625 2.171875 -4.609375 C 2.085938 -4.585938 2.019531 -4.535156 1.96875 -4.453125 C 1.925781 -4.367188 1.90625 -4.238281 1.90625 -4.0625 L 1.90625 -0.71875 C 1.90625 -0.539062 1.925781 -0.410156 1.96875 -0.328125 C 2.007812 -0.242188 2.070312 -0.1875 2.15625 -0.15625 C 2.25 -0.132812 2.390625 -0.125 2.578125 -0.125 L 2.578125 0 L 0.125 0 L 0.125 -0.125 C 0.300781 -0.125 0.429688 -0.132812 0.515625 -0.15625 C 0.597656 -0.175781 0.660156 -0.226562 0.703125 -0.3125 C 0.753906 -0.40625 0.78125 -0.539062 0.78125 -0.71875 L 0.78125 -4.0625 C 0.78125 -4.238281 0.753906 -4.367188 0.703125 -4.453125 C 0.660156 -4.535156 0.59375 -4.585938 0.5 -4.609375 C 0.414062 -4.640625 0.289062 -4.65625 0.125 -4.65625 L 0.125 -4.78125 L 2.578125 -4.78125 Z M 2.578125 -4.65625 "/></g></g></g></g><g clip-path="url(#04c5e17a31)"><g fill="#ffffff" fill-opacity="1"><g transform="translate(35.571965, 5.396958)"><g><path d="M 2.8125 -4.890625 C 3.050781 -4.890625 3.25 -4.867188 3.40625 -4.828125 C 3.5625 -4.785156 3.734375 -4.726562 3.921875 -4.65625 C 3.929688 -4.644531 3.972656 -4.625 4.046875 -4.59375 C 4.128906 -4.5625 4.203125 -4.546875 4.265625 -4.546875 C 4.441406 -4.546875 4.550781 -4.660156 4.59375 -4.890625 L 4.734375 -4.890625 L 4.734375 -3.28125 L 4.59375 -3.28125 C 4.550781 -3.539062 4.453125 -3.769531 4.296875 -3.96875 C 4.148438 -4.164062 3.96875 -4.316406 3.75 -4.421875 C 3.539062 -4.523438 3.328125 -4.578125 3.109375 -4.578125 C 2.796875 -4.578125 2.519531 -4.484375 2.28125 -4.296875 C 2.050781 -4.109375 1.875 -3.847656 1.75 -3.515625 C 1.625 -3.179688 1.5625 -2.804688 1.5625 -2.390625 C 1.5625 -1.703125 1.695312 -1.160156 1.96875 -0.765625 C 2.238281 -0.378906 2.609375 -0.1875 3.078125 -0.1875 C 3.378906 -0.1875 3.648438 -0.257812 3.890625 -0.40625 C 4.140625 -0.550781 4.390625 -0.769531 4.640625 -1.0625 L 4.640625 -0.6875 C 4.378906 -0.40625 4.109375 -0.203125 3.828125 -0.078125 C 3.546875 0.0351562 3.222656 0.09375 2.859375 0.09375 C 2.347656 0.09375 1.898438 -0.0078125 1.515625 -0.21875 C 1.128906 -0.4375 0.832031 -0.726562 0.625 -1.09375 C 0.425781 -1.457031 0.328125 -1.863281 0.328125 -2.3125 C 0.328125 -2.769531 0.4375 -3.195312 0.65625 -3.59375 C 0.882812 -3.988281 1.1875 -4.300781 1.5625 -4.53125 C 1.945312 -4.769531 2.363281 -4.890625 2.8125 -4.890625 Z M 2.8125 -4.890625 "/></g></g></g></g><g fill="#ffffff" fill-opacity="1"><g transform="translate(40.585535, 5.396958)"><g/></g></g></g></g><g transform="matrix(1, 0, 0, 1, 219, 59)"><g clip-path="url(#2a6cd16fe4)"><g fill="#001b70" fill-opacity="1"><g transform="translate(1.047316, 5.378377)"><g><path d="M 3.78125 -3.109375 L 3.65625 -3.109375 C 3.601562 -3.429688 3.488281 -3.675781 3.3125 -3.84375 C 3.132812 -4.019531 2.898438 -4.109375 2.609375 -4.109375 L 1.765625 -4.109375 L 1.765625 -2.328125 L 1.890625 -2.328125 C 2.046875 -2.328125 2.175781 -2.351562 2.28125 -2.40625 C 2.382812 -2.457031 2.472656 -2.554688 2.546875 -2.703125 C 2.617188 -2.847656 2.671875 -3.054688 2.703125 -3.328125 L 2.828125 -3.328125 L 2.828125 -1.125 L 2.703125 -1.125 C 2.660156 -1.507812 2.570312 -1.765625 2.4375 -1.890625 C 2.300781 -2.023438 2.128906 -2.09375 1.921875 -2.09375 L 1.765625 -2.09375 L 1.765625 -0.703125 C 1.765625 -0.523438 1.789062 -0.398438 1.84375 -0.328125 C 1.894531 -0.265625 2 -0.234375 2.15625 -0.234375 L 2.609375 -0.234375 C 2.984375 -0.234375 3.273438 -0.332031 3.484375 -0.53125 C 3.691406 -0.726562 3.851562 -1 3.96875 -1.34375 L 4.078125 -1.34375 L 3.890625 0 L 0.109375 0 L 0.109375 -0.109375 L 0.265625 -0.109375 C 0.410156 -0.109375 0.515625 -0.128906 0.578125 -0.171875 C 0.648438 -0.222656 0.695312 -0.285156 0.71875 -0.359375 C 0.738281 -0.429688 0.75 -0.523438 0.75 -0.640625 L 0.75 -3.71875 C 0.75 -3.925781 0.703125 -4.0625 0.609375 -4.125 C 0.515625 -4.195312 0.347656 -4.234375 0.109375 -4.234375 L 0.109375 -4.34375 L 3.78125 -4.34375 Z M 3.78125 -3.109375 "/></g></g></g><g fill="#001b70" fill-opacity="1"><g transform="translate(5.263584, 5.378377)"><g><path d="M 2.1875 -4.234375 C 2.03125 -4.234375 1.921875 -4.21875 1.859375 -4.1875 C 1.796875 -4.164062 1.765625 -4.117188 1.765625 -4.046875 C 1.765625 -3.960938 1.800781 -3.863281 1.875 -3.75 L 2.5 -2.75 L 3 -3.421875 C 3.15625 -3.640625 3.234375 -3.800781 3.234375 -3.90625 C 3.234375 -4.125 3.082031 -4.234375 2.78125 -4.234375 L 2.78125 -4.34375 L 4.296875 -4.34375 L 4.296875 -4.234375 C 4.140625 -4.222656 4.003906 -4.179688 3.890625 -4.109375 C 3.785156 -4.035156 3.644531 -3.882812 3.46875 -3.65625 L 2.640625 -2.53125 L 3.828125 -0.671875 C 3.941406 -0.484375 4.046875 -0.34375 4.140625 -0.25 C 4.242188 -0.164062 4.34375 -0.117188 4.4375 -0.109375 L 4.4375 0 L 2.421875 0 L 2.421875 -0.109375 C 2.566406 -0.109375 2.664062 -0.125 2.71875 -0.15625 C 2.78125 -0.1875 2.8125 -0.238281 2.8125 -0.3125 C 2.8125 -0.363281 2.785156 -0.4375 2.734375 -0.53125 C 2.691406 -0.625 2.597656 -0.78125 2.453125 -1 L 2.015625 -1.703125 L 1.3125 -0.78125 C 1.195312 -0.613281 1.140625 -0.484375 1.140625 -0.390625 C 1.140625 -0.203125 1.328125 -0.109375 1.703125 -0.109375 L 1.703125 0 L 0.09375 0 L 0.09375 -0.109375 C 0.269531 -0.109375 0.429688 -0.171875 0.578125 -0.296875 C 0.734375 -0.421875 0.90625 -0.613281 1.09375 -0.875 L 1.875 -1.921875 L 0.765625 -3.65625 C 0.628906 -3.863281 0.515625 -4.007812 0.421875 -4.09375 C 0.335938 -4.1875 0.226562 -4.234375 0.09375 -4.234375 L 0.09375 -4.34375 L 2.1875 -4.34375 Z M 2.1875 -4.234375 "/></g></g></g><g clip-path="url(#31a60d88b5)"><g fill="#001b70" fill-opacity="1"><g transform="translate(9.536744, 5.378377)"><g><path d="M 2.546875 -4.4375 C 2.765625 -4.4375 2.945312 -4.414062 3.09375 -4.375 C 3.238281 -4.34375 3.394531 -4.296875 3.5625 -4.234375 C 3.570312 -4.222656 3.613281 -4.203125 3.6875 -4.171875 C 3.757812 -4.140625 3.820312 -4.125 3.875 -4.125 C 4.03125 -4.125 4.128906 -4.226562 4.171875 -4.4375 L 4.296875 -4.4375 L 4.296875 -2.984375 L 4.171875 -2.984375 C 4.140625 -3.222656 4.050781 -3.429688 3.90625 -3.609375 C 3.769531 -3.785156 3.601562 -3.921875 3.40625 -4.015625 C 3.21875 -4.109375 3.023438 -4.15625 2.828125 -4.15625 C 2.535156 -4.15625 2.28125 -4.070312 2.0625 -3.90625 C 1.851562 -3.738281 1.691406 -3.5 1.578125 -3.1875 C 1.472656 -2.882812 1.421875 -2.546875 1.421875 -2.171875 C 1.421875 -1.546875 1.539062 -1.054688 1.78125 -0.703125 C 2.03125 -0.347656 2.367188 -0.171875 2.796875 -0.171875 C 3.066406 -0.171875 3.3125 -0.234375 3.53125 -0.359375 C 3.75 -0.492188 3.972656 -0.695312 4.203125 -0.96875 L 4.203125 -0.625 C 3.972656 -0.375 3.726562 -0.191406 3.46875 -0.078125 C 3.21875 0.0351562 2.925781 0.09375 2.59375 0.09375 C 2.125 0.09375 1.71875 -0.00390625 1.375 -0.203125 C 1.03125 -0.398438 0.765625 -0.664062 0.578125 -1 C 0.390625 -1.332031 0.296875 -1.695312 0.296875 -2.09375 C 0.296875 -2.519531 0.394531 -2.910156 0.59375 -3.265625 C 0.800781 -3.617188 1.078125 -3.898438 1.421875 -4.109375 C 1.765625 -4.328125 2.140625 -4.4375 2.546875 -4.4375 Z M 2.546875 -4.4375 "/></g></g></g></g><g fill="#001b70" fill-opacity="1"><g transform="translate(14.081718, 5.378377)"><g><path d="M 3.78125 -3.109375 L 3.65625 -3.109375 C 3.601562 -3.429688 3.488281 -3.675781 3.3125 -3.84375 C 3.132812 -4.019531 2.898438 -4.109375 2.609375 -4.109375 L 1.765625 -4.109375 L 1.765625 -2.328125 L 1.890625 -2.328125 C 2.046875 -2.328125 2.175781 -2.351562 2.28125 -2.40625 C 2.382812 -2.457031 2.472656 -2.554688 2.546875 -2.703125 C 2.617188 -2.847656 2.671875 -3.054688 2.703125 -3.328125 L 2.828125 -3.328125 L 2.828125 -1.125 L 2.703125 -1.125 C 2.660156 -1.507812 2.570312 -1.765625 2.4375 -1.890625 C 2.300781 -2.023438 2.128906 -2.09375 1.921875 -2.09375 L 1.765625 -2.09375 L 1.765625 -0.703125 C 1.765625 -0.523438 1.789062 -0.398438 1.84375 -0.328125 C 1.894531 -0.265625 2 -0.234375 2.15625 -0.234375 L 2.609375 -0.234375 C 2.984375 -0.234375 3.273438 -0.332031 3.484375 -0.53125 C 3.691406 -0.726562 3.851562 -1 3.96875 -1.34375 L 4.078125 -1.34375 L 3.890625 0 L 0.109375 0 L 0.109375 -0.109375 L 0.265625 -0.109375 C 0.410156 -0.109375 0.515625 -0.128906 0.578125 -0.171875 C 0.648438 -0.222656 0.695312 -0.285156 0.71875 -0.359375 C 0.738281 -0.429688 0.75 -0.523438 0.75 -0.640625 L 0.75 -3.71875 C 0.75 -3.925781 0.703125 -4.0625 0.609375 -4.125 C 0.515625 -4.195312 0.347656 -4.234375 0.109375 -4.234375 L 0.109375 -4.34375 L 3.78125 -4.34375 Z M 3.78125 -3.109375 "/></g></g></g><g fill="#001b70" fill-opacity="1"><g transform="translate(18.297986, 5.378377)"><g><path d="M 2.5625 -4.234375 C 2.34375 -4.234375 2.179688 -4.222656 2.078125 -4.203125 C 1.984375 -4.179688 1.910156 -4.128906 1.859375 -4.046875 C 1.816406 -3.972656 1.796875 -3.851562 1.796875 -3.6875 L 1.796875 -0.578125 C 1.796875 -0.460938 1.828125 -0.375 1.890625 -0.3125 C 1.953125 -0.257812 2.050781 -0.234375 2.1875 -0.234375 L 2.640625 -0.234375 C 2.992188 -0.234375 3.273438 -0.332031 3.484375 -0.53125 C 3.691406 -0.738281 3.847656 -1.054688 3.953125 -1.484375 L 4.0625 -1.484375 L 3.921875 0 L 0.09375 0 L 0.09375 -0.109375 C 0.28125 -0.117188 0.421875 -0.132812 0.515625 -0.15625 C 0.609375 -0.1875 0.675781 -0.238281 0.71875 -0.3125 C 0.757812 -0.394531 0.78125 -0.515625 0.78125 -0.671875 L 0.78125 -3.6875 C 0.78125 -3.851562 0.753906 -3.972656 0.703125 -4.046875 C 0.660156 -4.128906 0.59375 -4.179688 0.5 -4.203125 C 0.414062 -4.222656 0.28125 -4.234375 0.09375 -4.234375 L 0.09375 -4.34375 L 2.5625 -4.34375 Z M 2.5625 -4.234375 "/></g></g></g><g fill="#001b70" fill-opacity="1"><g transform="translate(22.514254, 5.378377)"><g><path d="M 2.5625 -4.234375 C 2.34375 -4.234375 2.179688 -4.222656 2.078125 -4.203125 C 1.984375 -4.179688 1.910156 -4.128906 1.859375 -4.046875 C 1.816406 -3.972656 1.796875 -3.851562 1.796875 -3.6875 L 1.796875 -0.578125 C 1.796875 -0.460938 1.828125 -0.375 1.890625 -0.3125 C 1.953125 -0.257812 2.050781 -0.234375 2.1875 -0.234375 L 2.640625 -0.234375 C 2.992188 -0.234375 3.273438 -0.332031 3.484375 -0.53125 C 3.691406 -0.738281 3.847656 -1.054688 3.953125 -1.484375 L 4.0625 -1.484375 L 3.921875 0 L 0.09375 0 L 0.09375 -0.109375 C 0.28125 -0.117188 0.421875 -0.132812 0.515625 -0.15625 C 0.609375 -0.1875 0.675781 -0.238281 0.71875 -0.3125 C 0.757812 -0.394531 0.78125 -0.515625 0.78125 -0.671875 L 0.78125 -3.6875 C 0.78125 -3.851562 0.753906 -3.972656 0.703125 -4.046875 C 0.660156 -4.128906 0.59375 -4.179688 0.5 -4.203125 C 0.414062 -4.222656 0.28125 -4.234375 0.09375 -4.234375 L 0.09375 -4.34375 L 2.5625 -4.34375 Z M 2.5625 -4.234375 "/></g></g></g><g fill="#001b70" fill-opacity="1"><g transform="translate(26.730522, 5.378377)"><g><path d="M 3.78125 -3.109375 L 3.65625 -3.109375 C 3.601562 -3.429688 3.488281 -3.675781 3.3125 -3.84375 C 3.132812 -4.019531 2.898438 -4.109375 2.609375 -4.109375 L 1.765625 -4.109375 L 1.765625 -2.328125 L 1.890625 -2.328125 C 2.046875 -2.328125 2.175781 -2.351562 2.28125 -2.40625 C 2.382812 -2.457031 2.472656 -2.554688 2.546875 -2.703125 C 2.617188 -2.847656 2.671875 -3.054688 2.703125 -3.328125 L 2.828125 -3.328125 L 2.828125 -1.125 L 2.703125 -1.125 C 2.660156 -1.507812 2.570312 -1.765625 2.4375 -1.890625 C 2.300781 -2.023438 2.128906 -2.09375 1.921875 -2.09375 L 1.765625 -2.09375 L 1.765625 -0.703125 C 1.765625 -0.523438 1.789062 -0.398438 1.84375 -0.328125 C 1.894531 -0.265625 2 -0.234375 2.15625 -0.234375 L 2.609375 -0.234375 C 2.984375 -0.234375 3.273438 -0.332031 3.484375 -0.53125 C 3.691406 -0.726562 3.851562 -1 3.96875 -1.34375 L 4.078125 -1.34375 L 3.890625 0 L 0.109375 0 L 0.109375 -0.109375 L 0.265625 -0.109375 C 0.410156 -0.109375 0.515625 -0.128906 0.578125 -0.171875 C 0.648438 -0.222656 0.695312 -0.285156 0.71875 -0.359375 C 0.738281 -0.429688 0.75 -0.523438 0.75 -0.640625 L 0.75 -3.71875 C 0.75 -3.925781 0.703125 -4.0625 0.609375 -4.125 C 0.515625 -4.195312 0.347656 -4.234375 0.109375 -4.234375 L 0.109375 -4.34375 L 3.78125 -4.34375 Z M 3.78125 -3.109375 "/></g></g></g><g fill="#001b70" fill-opacity="1"><g transform="translate(30.94679, 5.378377)"><g><path d="M 4.03125 -1.53125 L 4.03125 -3.6875 C 4.03125 -3.882812 3.976562 -4.023438 3.875 -4.109375 C 3.769531 -4.191406 3.601562 -4.234375 3.375 -4.234375 L 3.375 -4.34375 L 4.796875 -4.34375 L 4.796875 -4.234375 C 4.609375 -4.234375 4.46875 -4.179688 4.375 -4.078125 C 4.289062 -3.984375 4.25 -3.851562 4.25 -3.6875 L 4.25 0.0625 L 4.140625 0.0625 L 0.9375 -3.5625 L 0.9375 -0.640625 C 0.9375 -0.441406 0.988281 -0.300781 1.09375 -0.21875 C 1.195312 -0.144531 1.359375 -0.109375 1.578125 -0.109375 L 1.625 -0.109375 L 1.625 0 L 0.09375 0 L 0.09375 -0.109375 C 0.5 -0.109375 0.703125 -0.28125 0.703125 -0.625 L 0.703125 -3.8125 C 0.679688 -3.832031 0.628906 -3.882812 0.546875 -3.96875 C 0.472656 -4.0625 0.398438 -4.128906 0.328125 -4.171875 C 0.253906 -4.210938 0.175781 -4.234375 0.09375 -4.234375 L 0.09375 -4.34375 L 1.53125 -4.34375 Z M 4.03125 -1.53125 "/></g></g></g><g clip-path="url(#acdb4626e8)"><g fill="#001b70" fill-opacity="1"><g transform="translate(35.820463, 5.378377)"><g><path d="M 2.546875 -4.4375 C 2.765625 -4.4375 2.945312 -4.414062 3.09375 -4.375 C 3.238281 -4.34375 3.394531 -4.296875 3.5625 -4.234375 C 3.570312 -4.222656 3.613281 -4.203125 3.6875 -4.171875 C 3.757812 -4.140625 3.820312 -4.125 3.875 -4.125 C 4.03125 -4.125 4.128906 -4.226562 4.171875 -4.4375 L 4.296875 -4.4375 L 4.296875 -2.984375 L 4.171875 -2.984375 C 4.140625 -3.222656 4.050781 -3.429688 3.90625 -3.609375 C 3.769531 -3.785156 3.601562 -3.921875 3.40625 -4.015625 C 3.21875 -4.109375 3.023438 -4.15625 2.828125 -4.15625 C 2.535156 -4.15625 2.28125 -4.070312 2.0625 -3.90625 C 1.851562 -3.738281 1.691406 -3.5 1.578125 -3.1875 C 1.472656 -2.882812 1.421875 -2.546875 1.421875 -2.171875 C 1.421875 -1.546875 1.539062 -1.054688 1.78125 -0.703125 C 2.03125 -0.347656 2.367188 -0.171875 2.796875 -0.171875 C 3.066406 -0.171875 3.3125 -0.234375 3.53125 -0.359375 C 3.75 -0.492188 3.972656 -0.695312 4.203125 -0.96875 L 4.203125 -0.625 C 3.972656 -0.375 3.726562 -0.191406 3.46875 -0.078125 C 3.21875 0.0351562 2.925781 0.09375 2.59375 0.09375 C 2.125 0.09375 1.71875 -0.00390625 1.375 -0.203125 C 1.03125 -0.398438 0.765625 -0.664062 0.578125 -1 C 0.390625 -1.332031 0.296875 -1.695312 0.296875 -2.09375 C 0.296875 -2.519531 0.394531 -2.910156 0.59375 -3.265625 C 0.800781 -3.617188 1.078125 -3.898438 1.421875 -4.109375 C 1.765625 -4.328125 2.140625 -4.4375 2.546875 -4.4375 Z M 2.546875 -4.4375 "/></g></g></g></g><g fill="#001b70" fill-opacity="1"><g transform="translate(40.365437, 5.378377)"><g><path d="M 3.78125 -3.109375 L 3.65625 -3.109375 C 3.601562 -3.429688 3.488281 -3.675781 3.3125 -3.84375 C 3.132812 -4.019531 2.898438 -4.109375 2.609375 -4.109375 L 1.765625 -4.109375 L 1.765625 -2.328125 L 1.890625 -2.328125 C 2.046875 -2.328125 2.175781 -2.351562 2.28125 -2.40625 C 2.382812 -2.457031 2.472656 -2.554688 2.546875 -2.703125 C 2.617188 -2.847656 2.671875 -3.054688 2.703125 -3.328125 L 2.828125 -3.328125 L 2.828125 -1.125 L 2.703125 -1.125 C 2.660156 -1.507812 2.570312 -1.765625 2.4375 -1.890625 C 2.300781 -2.023438 2.128906 -2.09375 1.921875 -2.09375 L 1.765625 -2.09375 L 1.765625 -0.703125 C 1.765625 -0.523438 1.789062 -0.398438 1.84375 -0.328125 C 1.894531 -0.265625 2 -0.234375 2.15625 -0.234375 L 2.609375 -0.234375 C 2.984375 -0.234375 3.273438 -0.332031 3.484375 -0.53125 C 3.691406 -0.726562 3.851562 -1 3.96875 -1.34375 L 4.078125 -1.34375 L 3.890625 0 L 0.109375 0 L 0.109375 -0.109375 L 0.265625 -0.109375 C 0.410156 -0.109375 0.515625 -0.128906 0.578125 -0.171875 C 0.648438 -0.222656 0.695312 -0.285156 0.71875 -0.359375 C 0.738281 -0.429688 0.75 -0.523438 0.75 -0.640625 L 0.75 -3.71875 C 0.75 -3.925781 0.703125 -4.0625 0.609375 -4.125 C 0.515625 -4.195312 0.347656 -4.234375 0.109375 -4.234375 L 0.109375 -4.34375 L 3.78125 -4.34375 Z M 3.78125 -3.109375 "/></g></g></g></g></g></g></g></g></svg>